<?xml version="1.0" encoding="utf-8"?>
<!-- Generator: Adobe Illustrator 28.2.0, SVG Export Plug-In . SVG Version: 6.00 Build 0)  -->
<svg version="1.1" id="Layer_1" xmlns="http://www.w3.org/2000/svg" xmlns:xlink="http://www.w3.org/1999/xlink" x="0px" y="0px"
	 viewBox="0 0 512 512" style="enable-background:new 0 0 512 512;" xml:space="preserve">
<style type="text/css">
	.st0{fill:none;}
	.st1{fill:#FFE177;}
	.st2{fill:#FFD064;}
	.st3{fill:#D1D1D6;}
	.st4{fill:#ECEFF1;}
	.st5{fill:#8AC9FE;}
</style>
<g>
	<path vector-effect="non-scaling-stroke" class="st0" d="M272.78,488.91l9.8-0.05c0.34,0,0.57-0.16,0.7-0.48l13.21-34.29"/>
	<path vector-effect="non-scaling-stroke" class="st0" d="M296.49,454.09c1.2-2.67,3.29-4.36,6.26-5.08
		c19.7-4.77,38.22-12.36,55.55-22.77c3.56-2.13,6.04-2.97,9.73-1.32c9.62,4.31,19.08,8.51,28.37,12.59"/>
	<path vector-effect="non-scaling-stroke" class="st0" d="M396.4,437.51l4.77,2.02c0.33,0.14,0.62,0.08,0.87-0.17l37.53-37.53
		c0.17-0.17,0.22-0.42,0.12-0.64c-4.76-10.7-9.51-21.43-14.26-32.19c-1.36-3.09-2.03-5.8-0.33-8.64
		c8.53-14.25,15.21-28.82,20.06-43.72c0.85-2.59,2.42-8.14,4.73-16.66"/>
	<path vector-effect="non-scaling-stroke" class="st0" d="M449.89,299.98c1.21-1.61,2.41-2.67,3.62-3.18
		c3.73-1.57,11.89-4.73,24.48-9.5"/>
	<path vector-effect="non-scaling-stroke" class="st0" d="M477.99,287.3l10.72-4.13c0.12-0.05,0.2-0.16,0.2-0.28V229.5
		c0-0.33-0.16-0.56-0.47-0.68l-10.13-3.94"/>
	<path vector-effect="non-scaling-stroke" class="st0" d="M478.31,224.88c-8.26-3.21-16.53-6.41-24.81-9.61
		c-1.04-0.4-2.24-1.47-3.6-3.21"/>
	<path vector-effect="non-scaling-stroke" class="st0" d="M449.9,212.06c-2.32-8.41-3.84-13.79-4.55-16.13
		c-4.29-14.1-10.66-28.18-19.1-42.23c-1.88-3.14-2.97-5.78-1.55-9.01c4.89-11.13,9.89-22.42,15-33.89c0.1-0.23,0.06-0.43-0.11-0.6
		l-37.66-37.66c-0.22-0.22-0.54-0.28-0.82-0.15l-4.72,2.12"/>
	<path vector-effect="non-scaling-stroke" class="st0" d="M396.39,74.51c-8.81,3.86-17.79,7.84-26.92,11.94
		c-3.05,1.37-6.31,2.28-9,0.63c-18.25-11.23-37.74-19.32-58.48-24.28c-2.45-0.59-4.28-2.19-5.48-4.82"/>
	<path vector-effect="non-scaling-stroke" class="st0" d="M296.51,57.98l-13.25-34.36c-0.12-0.31-0.35-0.47-0.69-0.47l-9.75-0.05"/>
	<path vector-effect="non-scaling-stroke" class="st0" d="M272.82,23.1l-43.51-0.01c-0.23,0-0.39,0.11-0.47,0.33
		c-6.18,16.07-10.62,27.52-13.33,34.35c-1.07,2.71-2.71,4.33-4.92,4.86c-20.39,4.91-39.51,12.74-57.38,23.47
		c-3,1.8-5.64,2.53-8.72,1.16c-11.25-4.98-22.47-9.96-33.66-14.93c-0.2-0.09-0.45-0.05-0.61,0.11l-37.78,37.78
		c-0.16,0.16-0.2,0.41-0.11,0.62c7.53,16.93,12.33,27.72,14.39,32.37c1.29,2.93,1.87,5.94,0.28,8.55
		c-11.02,18.03-18.91,36.73-23.67,56.08c-1.09,4.41-2.31,6.5-6.39,8.07c-16.05,6.17-27.16,10.45-33.34,12.85
		c-0.34,0.13-0.51,0.37-0.51,0.74v53.24c0,0.23,0.14,0.44,0.36,0.52c13.97,5.32,25.4,9.73,34.3,13.23c2.69,1.06,4.32,2.77,4.91,5.14
		c5.2,21.05,12.92,39.94,23.17,56.69c2.12,3.45,2.9,6.14,1.28,9.73c-2.53,5.61-7.46,16.66-14.79,33.16
		c-0.08,0.19-0.04,0.42,0.11,0.57l37.79,37.79c0.18,0.19,0.39,0.23,0.62,0.12c17.55-7.8,28.73-12.74,33.52-14.82
		c2.72-1.18,5.19-1.11,7.4,0.22c18.35,11.05,37.11,18.92,56.26,23.61c4.06,1,6.3,2.23,7.77,6.05c4.3,11.17,8.62,22.39,12.96,33.66
		c0.12,0.31,0.35,0.47,0.68,0.47l43.35,0.03"/>
	<path vector-effect="non-scaling-stroke" class="st0" d="M272.82,23.1l11.99,31.24c0.12,0.31,0.34,0.51,0.66,0.6l11.04,3.04"/>
	<path vector-effect="non-scaling-stroke" class="st0" d="M396.39,74.51l33.8,33.91c0.16,0.16,0.2,0.41,0.11,0.61l-16.99,38.2
		c-0.17,0.39-0.14,0.84,0.08,1.2c11.29,18.51,19.43,38.16,24.42,58.94c0.09,0.39,0.38,0.7,0.75,0.83l11.34,3.86"/>
	<path vector-effect="non-scaling-stroke" class="st0" d="M478.31,224.88l-0.32,62.42"/>
	<path vector-effect="non-scaling-stroke" class="st0" d="M449.89,299.98l-11.38,3.85c-0.34,0.11-0.59,0.39-0.68,0.73
		c-5.01,20.83-13.14,40.48-24.39,58.95c-0.27,0.44-0.29,0.9-0.08,1.37l16.93,38.09c0.11,0.25,0.07,0.46-0.12,0.65l-33.77,33.89"/>
	<path vector-effect="non-scaling-stroke" class="st0" d="M296.49,454.09l-11.18,2.94c-0.24,0.06-0.41,0.21-0.5,0.45l-12.03,31.43"
		/>
	<path vector-effect="non-scaling-stroke" class="st0" d="M224.73,109.45l-14.92,4.01"/>
	<path vector-effect="non-scaling-stroke" class="st0" d="M209.81,113.46c-1.78-4.12-5.63-6.11-9.95-4.78
		c-1.22,0.37-2.6,0.88-4.13,1.52c-14.03,5.81-26.95,13.48-38.76,23.01c-3.89,3.14-4.31,6.99-1.28,11.54"/>
	<path vector-effect="non-scaling-stroke" class="st0" d="M155.69,144.75l-10.95,10.84"/>
	<path vector-effect="non-scaling-stroke" class="st0" d="M144.74,155.59c-2.62-1.77-5.17-2.23-7.66-1.36
		c-1.59,0.55-3.36,2.08-5.32,4.59c-9.07,11.57-16.38,24.18-21.93,37.82c-1.22,3-1.7,5.33-1.44,6.98c0.41,2.67,2.08,4.71,5,6.12"/>
	<path vector-effect="non-scaling-stroke" class="st0" d="M113.39,209.74l-3.99,14.94"/>
	<path vector-effect="non-scaling-stroke" class="st0" d="M109.4,224.68c-5.33-0.26-8.41,2.01-9.24,6.8
		c-2.53,14.67-2.65,30.18-0.34,46.51c0.44,3.15,1.22,5.37,2.33,6.65c1.73,1.98,4.17,2.85,7.34,2.62"/>
	<path vector-effect="non-scaling-stroke" class="st0" d="M109.49,287.26l3.8,14.93"/>
	<path vector-effect="non-scaling-stroke" class="st0" d="M113.29,302.19c-4.84,2.63-6.13,6.67-3.88,12.12
		c6.22,15.06,14.01,28.45,23.36,40.18c3.37,4.22,7.35,4.83,11.95,1.83"/>
	<path vector-effect="non-scaling-stroke" class="st0" d="M144.72,356.32l10.91,10.91"/>
	<path vector-effect="non-scaling-stroke" class="st0" d="M155.63,367.23c-1.77,2.56-2.26,5.08-1.46,7.56
		c0.53,1.63,2.02,3.4,4.47,5.33c11.75,9.26,24.57,16.68,38.46,22.27c2.89,1.16,5.17,1.56,6.86,1.2c2.55-0.55,4.48-2.24,5.79-5.07"/>
	<path vector-effect="non-scaling-stroke" class="st0" d="M209.75,398.52l15.03,3.84"/>
	<path vector-effect="non-scaling-stroke" class="st0" d="M224.78,402.36c-0.35,3.36,0.56,5.91,2.72,7.66
		c1.32,1.07,3.63,1.83,6.94,2.27c55.96,7.52,111.19-14.84,145.76-59.07c47.06-60.21,44.37-145.3-6.59-202.31
		c-35.08-39.25-87.04-58.27-139.4-51.13c-3.22,0.43-5.47,1.19-6.76,2.26c-2.06,1.71-2.97,4.18-2.72,7.41"/>
	<path vector-effect="non-scaling-stroke" class="st0" d="M224.78,402.36c0.53-2.01,1.54-3.6,3.01-4.77"/>
	<path vector-effect="non-scaling-stroke" class="st0" d="M227.79,397.59c1.89-1.39,3.88-1.92,5.97-1.61
		c24.47,3.64,47.95,1.4,70.45-6.71c42.74-15.41,75.99-51.01,88.31-95.24c11.68-41.96,3.45-86.77-22.45-122.03
		c-31.58-43-84.05-64.09-137.07-55.85c-1.7,0.27-3.48-0.33-5.34-1.79"/>
	<path vector-effect="non-scaling-stroke" class="st0" d="M227.66,114.36c-1.58-1.45-2.56-3.08-2.93-4.91"/>
	<path vector-effect="non-scaling-stroke" class="st0" d="M227.66,114.36c-6.89,2.37-13.48,5.21-19.77,8.54
		c-0.29,0.15-0.77,0.21-1.44,0.17"/>
	<path vector-effect="non-scaling-stroke" class="st0" d="M227.79,397.59c-6.49-2.09-12.76-4.71-18.8-7.86
		c-0.61-0.32-1.02-0.25-1.24,0.22"/>
	<path vector-effect="non-scaling-stroke" class="st0" d="M207.75,389.95l-3.35-2.29"/>
	<path vector-effect="non-scaling-stroke" class="st0" d="M204.4,387.66c-24.85-14.23-44-32.93-57.44-56.12
		c-13.8-23.82-20.59-49.32-20.36-76.51c0.23-26.47,6.78-50.89,19.67-73.26c13.89-24.13,33.09-43.1,57.6-56.9
		c0.49-0.27,0.76-0.6,0.79-0.97"/>
	<path vector-effect="non-scaling-stroke" class="st0" d="M209.81,113.46c1.12,4.01,0,7.21-3.36,9.61"/>
	<path vector-effect="non-scaling-stroke" class="st0" d="M206.45,123.07l-1.79,0.83"/>
	<path vector-effect="non-scaling-stroke" class="st0" d="M204.66,123.9c-12.7,4.99-24.45,11.63-35.24,19.92
		c-2.79,2.14-4.87,3.34-6.24,3.61c-2.66,0.51-5.16-0.39-7.49-2.68"/>
	<path vector-effect="non-scaling-stroke" class="st0" d="M207.75,389.95c2.29,2.58,2.96,5.44,2,8.57"/>
	<path vector-effect="non-scaling-stroke" class="st0" d="M204.4,387.66c-12.71-4.66-24.31-11.08-34.8-19.26
		c-2.89-2.25-4.98-3.53-6.27-3.82c-2.73-0.62-5.29,0.26-7.7,2.65"/>
	<path vector-effect="non-scaling-stroke" class="st0" d="M144.72,356.32c2.13-2.1,3.06-4.44,2.77-7.01c-0.17-1.57-1.2-3.57-3.09-6
		c-8.06-10.38-14.59-21.64-19.59-33.79c-1.29-3.15-2.54-5.19-3.74-6.14c-2.09-1.65-4.68-2.05-7.78-1.19"/>
	<path vector-effect="non-scaling-stroke" class="st0" d="M109.49,287.26c3.06-0.81,5.07-2.47,6.02-4.98
		c0.53-1.41,0.58-3.77,0.14-7.07c-1.71-12.78-1.71-25.56-0.01-38.34c0.45-3.39,0.41-5.79-0.12-7.18c-0.95-2.51-2.99-4.18-6.12-5.01"
		/>
	<path vector-effect="non-scaling-stroke" class="st0" d="M113.39,209.74c3.11,0.86,5.7,0.45,7.78-1.24
		c1.13-0.93,2.35-2.97,3.66-6.13c5.03-12.2,11.94-23.9,20.72-35.09c3.15-4.02,2.88-7.92-0.81-11.69"/>
	<path vector-effect="non-scaling-stroke" class="st0" d="M233.72,259.04c-7.13-6.98-15.76-15.61-25.91-25.88
		c-5.74-5.81-10.01-9.48-12.81-11.01c-22.38-12.15-49.18,3.99-48.84,29.43c0.11,8.68,3.5,16.39,10.15,23.13
		c2.41,2.44,18.96,19.02,49.66,49.74c5.75,5.75,10.02,9.35,12.83,10.8c9.29,4.8,21.29,4.94,30.56-0.13
		c3.18-1.74,6.33-4.18,9.44-7.32c56.07-56.55,88.61-89.43,97.61-98.64c15.15-15.53,11.76-41.02-7.18-51.78
		c-13.46-7.66-29.45-4.68-40.3,6.3c-25.2,25.53-50.06,50.64-74.58,75.35C234.14,259.24,233.93,259.25,233.72,259.04"/>
	<path vector-effect="non-scaling-stroke" class="st0" d="M229.31,277.31c-6.96-6.79-17.42-17.22-31.39-31.29
		c-5.07-5.11-7.98-7.94-8.74-8.49c-11.62-8.53-27.44-0.07-27.01,14.03c0.14,4.38,2.03,8.39,5.67,12.03
		c17.53,17.54,34.81,34.82,51.83,51.84c3.35,3.35,6.13,5.47,8.34,6.36c5.23,2.11,10.63,1.34,16.19-2.32
		c0.43-0.28,2.3-2.08,5.61-5.41c30.35-30.55,60.65-61.17,90.88-91.85c3.56-3.61,5.59-5.75,6.09-6.41c1.98-2.63,2.99-5.48,3.02-8.57
		c0.09-6.91-2.41-11.98-7.49-15.23c-6.84-4.38-15.47-3.54-21.13,2.18c-14.83,14.99-42.03,42.46-81.58,82.42
		c-2.06,2.07-4.43,2.77-7.1,2.1C230.91,278.29,229.84,277.83,229.31,277.31"/>
</g>
<path d="M256.02,7.05c16.44-0.01,27.57,0.01,33.4,0.05c3.12,0.03,5.34,1.75,6.66,5.16c6.99,18,11.57,29.8,13.76,35.41
	c0.13,0.31,0.35,0.52,0.68,0.61c9.61,2.61,18.83,5.74,27.65,9.39c8.82,3.66,17.55,7.97,26.2,12.92c0.29,0.17,0.6,0.18,0.91,0.05
	c5.51-2.42,17.1-7.52,34.77-15.31c3.35-1.48,6.14-1.13,8.36,1.06c4.14,4.09,12.02,11.95,23.65,23.58
	c11.63,11.63,19.49,19.51,23.58,23.66c2.19,2.22,2.54,5.01,1.06,8.36c-7.79,17.67-12.89,29.25-15.31,34.76
	c-0.13,0.31-0.12,0.62,0.05,0.91c4.95,8.65,9.26,17.38,12.91,26.2c3.66,8.82,6.79,18.04,9.4,27.66c0.09,0.33,0.3,0.55,0.61,0.68
	c5.61,2.18,17.41,6.76,35.4,13.75c3.42,1.33,5.14,3.55,5.17,6.67c0.03,5.82,0.05,16.95,0.05,33.4c0,16.44-0.02,27.57-0.06,33.4
	c-0.02,3.12-1.74,5.34-5.16,6.66c-18,6.99-29.8,11.57-35.4,13.76c-0.32,0.13-0.52,0.35-0.61,0.68c-2.61,9.61-5.75,18.83-9.4,27.65
	c-3.65,8.83-7.96,17.56-12.91,26.2c-0.17,0.29-0.18,0.6-0.05,0.91c2.42,5.51,7.52,17.1,15.31,34.77c1.48,3.35,1.13,6.14-1.06,8.36
	c-4.09,4.15-11.96,12.03-23.59,23.65c-11.63,11.63-19.51,19.49-23.66,23.58c-2.22,2.19-5.01,2.54-8.36,1.06
	c-17.67-7.79-29.25-12.89-34.76-15.31c-0.31-0.13-0.62-0.12-0.91,0.05c-8.65,4.95-17.38,9.26-26.2,12.92
	c-8.82,3.65-18.04,6.78-27.66,9.39c-0.32,0.09-0.54,0.3-0.67,0.61c-2.19,5.61-6.77,17.41-13.76,35.4c-1.33,3.42-3.55,5.14-6.66,5.17
	c-5.83,0.03-16.96,0.05-33.4,0.05c-16.45,0-27.58-0.02-33.41-0.06c-3.11-0.02-5.33-1.74-6.66-5.16c-6.99-18-11.57-29.8-13.75-35.4
	c-0.13-0.32-0.35-0.52-0.68-0.61c-9.62-2.61-18.84-5.75-27.66-9.4c-8.82-3.65-17.55-7.96-26.2-12.91c-0.29-0.17-0.6-0.18-0.91-0.05
	c-5.51,2.42-17.09,7.52-34.76,15.31c-3.35,1.48-6.14,1.13-8.36-1.06c-4.15-4.09-12.03-11.96-23.66-23.59
	c-11.63-11.63-19.49-19.51-23.58-23.66c-2.19-2.22-2.54-5.01-1.06-8.36c7.79-17.67,12.89-29.25,15.31-34.76
	c0.13-0.31,0.12-0.62-0.05-0.91c-4.95-8.65-9.26-17.38-12.91-26.2s-6.79-18.04-9.4-27.66c-0.09-0.32-0.29-0.54-0.61-0.67
	c-5.6-2.19-17.4-6.77-35.4-13.76c-3.42-1.33-5.14-3.55-5.16-6.66c-0.04-5.83-0.06-16.96-0.05-33.4
	c-0.01-16.45,0.01-27.58,0.05-33.41c0.03-3.11,1.75-5.33,5.16-6.66c18-6.99,29.8-11.57,35.41-13.75c0.31-0.13,0.52-0.35,0.61-0.68
	c2.61-9.62,5.74-18.84,9.39-27.66c3.65-8.82,7.96-17.55,12.92-26.2c0.17-0.29,0.18-0.6,0.05-0.91c-2.42-5.51-7.52-17.09-15.31-34.76
	c-1.48-3.35-1.13-6.14,1.06-8.36c4.09-4.15,11.95-12.03,23.58-23.66s19.51-19.49,23.66-23.58c2.22-2.19,5.01-2.54,8.36-1.06
	c17.67,7.79,29.25,12.89,34.76,15.31c0.31,0.13,0.62,0.12,0.91-0.05c8.65-4.95,17.38-9.26,26.2-12.91
	c8.82-3.65,18.04-6.79,27.66-9.4c0.33-0.09,0.55-0.29,0.68-0.61c2.18-5.6,6.76-17.4,13.75-35.4c1.33-3.42,3.55-5.14,6.66-5.16
	C228.44,7.06,239.57,7.04,256.02,7.05z M272.78,488.91l9.8-0.05c0.34,0,0.57-0.16,0.7-0.48l13.21-34.29
	c1.2-2.67,3.29-4.36,6.26-5.08c19.7-4.77,38.22-12.36,55.55-22.77c3.56-2.13,6.04-2.97,9.73-1.32c9.62,4.31,19.08,8.51,28.37,12.59
	l4.77,2.02c0.33,0.14,0.62,0.08,0.87-0.17l37.53-37.53c0.17-0.17,0.22-0.42,0.12-0.64c-4.76-10.7-9.51-21.43-14.26-32.19
	c-1.36-3.09-2.03-5.8-0.33-8.64c8.53-14.25,15.21-28.82,20.06-43.72c0.85-2.59,2.42-8.14,4.73-16.66c1.21-1.61,2.41-2.67,3.62-3.18
	c3.73-1.57,11.89-4.73,24.48-9.5l10.72-4.13c0.12-0.05,0.2-0.16,0.2-0.28V229.5c0-0.33-0.16-0.56-0.47-0.68l-10.13-3.94
	c-8.26-3.21-16.53-6.41-24.81-9.61c-1.04-0.4-2.24-1.47-3.6-3.21c-2.32-8.41-3.84-13.79-4.55-16.13
	c-4.29-14.1-10.66-28.18-19.1-42.23c-1.88-3.14-2.97-5.78-1.55-9.01c4.89-11.13,9.89-22.42,15-33.89c0.1-0.23,0.06-0.43-0.11-0.6
	l-37.66-37.66c-0.22-0.22-0.54-0.28-0.82-0.15l-4.72,2.12c-8.81,3.86-17.79,7.84-26.92,11.94c-3.05,1.37-6.31,2.28-9,0.63
	c-18.25-11.23-37.74-19.32-58.48-24.28c-2.45-0.59-4.28-2.19-5.48-4.82l-13.25-34.36c-0.12-0.31-0.35-0.47-0.69-0.47l-9.75-0.05
	l-43.51-0.01c-0.23,0-0.39,0.11-0.47,0.33c-6.18,16.07-10.62,27.52-13.33,34.35c-1.07,2.71-2.71,4.33-4.92,4.86
	c-20.39,4.91-39.51,12.74-57.38,23.47c-3,1.8-5.64,2.53-8.72,1.16c-11.25-4.98-22.47-9.96-33.66-14.93
	c-0.2-0.09-0.45-0.05-0.61,0.11l-37.78,37.78c-0.16,0.16-0.2,0.41-0.11,0.62c7.53,16.93,12.33,27.72,14.39,32.37
	c1.29,2.93,1.87,5.94,0.28,8.55c-11.02,18.03-18.91,36.73-23.67,56.08c-1.09,4.41-2.31,6.5-6.39,8.07
	c-16.05,6.17-27.16,10.45-33.34,12.85c-0.34,0.13-0.51,0.37-0.51,0.74v53.24c0,0.23,0.14,0.44,0.36,0.52
	c13.97,5.32,25.4,9.73,34.3,13.23c2.69,1.06,4.32,2.77,4.91,5.14c5.2,21.05,12.92,39.94,23.17,56.69c2.12,3.45,2.9,6.14,1.28,9.73
	c-2.53,5.61-7.46,16.66-14.79,33.16c-0.08,0.19-0.04,0.42,0.11,0.57l37.79,37.79c0.18,0.19,0.39,0.23,0.62,0.12
	c17.55-7.8,28.73-12.74,33.52-14.82c2.72-1.18,5.19-1.11,7.4,0.22c18.35,11.05,37.11,18.92,56.26,23.61c4.06,1,6.3,2.23,7.77,6.05
	c4.3,11.17,8.62,22.39,12.96,33.66c0.12,0.31,0.35,0.47,0.68,0.47L272.78,488.91z"/>
<path class="st1" d="M272.82,23.1l11.99,31.24c0.12,0.31,0.34,0.51,0.66,0.6l11.04,3.04c1.2,2.63,3.03,4.23,5.48,4.82
	c20.74,4.96,40.23,13.05,58.48,24.28c2.69,1.65,5.95,0.74,9-0.63c9.13-4.1,18.11-8.08,26.92-11.94l33.8,33.91
	c0.16,0.16,0.2,0.41,0.11,0.61l-16.99,38.2c-0.17,0.39-0.14,0.84,0.08,1.2c11.29,18.51,19.43,38.16,24.42,58.94
	c0.09,0.39,0.38,0.7,0.75,0.83l11.34,3.86c1.36,1.74,2.56,2.81,3.6,3.21c8.28,3.2,16.55,6.4,24.81,9.61l-0.32,62.42
	c-12.59,4.77-20.75,7.93-24.48,9.5c-1.21,0.51-2.41,1.57-3.62,3.18l-11.38,3.85c-0.34,0.11-0.59,0.39-0.68,0.73
	c-5.01,20.83-13.14,40.48-24.39,58.95c-0.27,0.44-0.29,0.9-0.08,1.37l16.93,38.09c0.11,0.25,0.07,0.46-0.12,0.65l-33.77,33.89
	c-9.29-4.08-18.75-8.28-28.37-12.59c-3.69-1.65-6.17-0.81-9.73,1.32c-17.33,10.41-35.85,18-55.55,22.77
	c-2.97,0.72-5.06,2.41-6.26,5.08l-11.18,2.94c-0.24,0.06-0.41,0.21-0.5,0.45l-12.03,31.43l-43.35-0.03c-0.33,0-0.56-0.16-0.68-0.47
	c-4.34-11.27-8.66-22.49-12.96-33.66c-1.47-3.82-3.71-5.05-7.77-6.05c-19.15-4.69-37.91-12.56-56.26-23.61
	c-2.21-1.33-4.68-1.4-7.4-0.22c-4.79,2.08-15.97,7.02-33.52,14.82c-0.23,0.11-0.44,0.07-0.62-0.12l-37.79-37.79
	c-0.15-0.15-0.19-0.38-0.11-0.57c7.33-16.5,12.26-27.55,14.79-33.16c1.62-3.59,0.84-6.28-1.28-9.73
	c-10.25-16.75-17.97-35.64-23.17-56.69c-0.59-2.37-2.22-4.08-4.91-5.14c-8.9-3.5-20.33-7.91-34.3-13.23
	c-0.22-0.08-0.36-0.29-0.36-0.52V229.5c0-0.37,0.17-0.61,0.51-0.74c6.18-2.4,17.29-6.68,33.34-12.85c4.08-1.57,5.3-3.66,6.39-8.07
	c4.76-19.35,12.65-38.05,23.67-56.08c1.59-2.61,1.01-5.62-0.28-8.55c-2.06-4.65-6.86-15.44-14.39-32.37
	c-0.09-0.21-0.05-0.46,0.11-0.62l37.78-37.78c0.16-0.16,0.41-0.2,0.61-0.11c11.19,4.97,22.41,9.95,33.66,14.93
	c3.08,1.37,5.72,0.64,8.72-1.16c17.87-10.73,36.99-18.56,57.38-23.47c2.21-0.53,3.85-2.15,4.92-4.86
	c2.71-6.83,7.15-18.28,13.33-34.35c0.08-0.22,0.24-0.33,0.47-0.33L272.82,23.1z M224.73,109.45l-14.92,4.01
	c-1.78-4.12-5.63-6.11-9.95-4.78c-1.22,0.37-2.6,0.88-4.13,1.52c-14.03,5.81-26.95,13.48-38.76,23.01
	c-3.89,3.14-4.31,6.99-1.28,11.54l-10.95,10.84c-2.62-1.77-5.17-2.23-7.66-1.36c-1.59,0.55-3.36,2.08-5.32,4.59
	c-9.07,11.57-16.38,24.18-21.93,37.82c-1.22,3-1.7,5.33-1.44,6.98c0.41,2.67,2.08,4.71,5,6.12l-3.99,14.94
	c-5.33-0.26-8.41,2.01-9.24,6.8c-2.53,14.67-2.65,30.18-0.34,46.51c0.44,3.15,1.22,5.37,2.33,6.65c1.73,1.98,4.17,2.85,7.34,2.62
	l3.8,14.93c-4.84,2.63-6.13,6.67-3.88,12.12c6.22,15.06,14.01,28.45,23.36,40.18c3.37,4.22,7.35,4.83,11.95,1.83l10.91,10.91
	c-1.77,2.56-2.26,5.08-1.46,7.56c0.53,1.63,2.02,3.4,4.47,5.33c11.75,9.26,24.57,16.68,38.46,22.27c2.89,1.16,5.17,1.56,6.86,1.2
	c2.55-0.55,4.48-2.24,5.79-5.07l15.03,3.84c-0.35,3.36,0.56,5.91,2.72,7.66c1.32,1.07,3.63,1.83,6.94,2.27
	c55.96,7.52,111.19-14.84,145.76-59.07c47.06-60.21,44.37-145.3-6.59-202.31c-35.08-39.25-87.04-58.27-139.4-51.13
	c-3.22,0.43-5.47,1.19-6.76,2.26C225.39,103.75,224.48,106.22,224.73,109.45z"/>
<path class="st2" d="M296.51,57.98l-11.04-3.04c-0.32-0.09-0.54-0.29-0.66-0.6L272.82,23.1l9.75,0.05c0.34,0,0.57,0.16,0.69,0.47
	L296.51,57.98z"/>
<path class="st2" d="M449.9,212.06l-11.34-3.86c-0.37-0.13-0.66-0.44-0.75-0.83c-4.99-20.78-13.13-40.43-24.42-58.94
	c-0.22-0.36-0.25-0.81-0.08-1.2l16.99-38.2c0.09-0.2,0.05-0.45-0.11-0.61l-33.8-33.91l4.72-2.12c0.28-0.13,0.6-0.07,0.82,0.15
	l37.66,37.66c0.17,0.17,0.21,0.37,0.11,0.6c-5.11,11.47-10.11,22.76-15,33.89c-1.42,3.23-0.33,5.87,1.55,9.01
	c8.44,14.05,14.81,28.13,19.1,42.23C446.06,198.27,447.58,203.65,449.9,212.06z"/>
<path d="M224.78,402.36c0.53-2.01,1.54-3.6,3.01-4.77c1.89-1.39,3.88-1.92,5.97-1.61c24.47,3.64,47.95,1.4,70.45-6.71
	c42.74-15.41,75.99-51.01,88.31-95.24c11.68-41.96,3.45-86.77-22.45-122.03c-31.58-43-84.05-64.09-137.07-55.85
	c-1.7,0.27-3.48-0.33-5.34-1.79c-1.58-1.45-2.56-3.08-2.93-4.91c-0.25-3.23,0.66-5.7,2.72-7.41c1.29-1.07,3.54-1.83,6.76-2.26
	c52.36-7.14,104.32,11.88,139.4,51.13c50.96,57.01,53.65,142.1,6.59,202.31c-34.57,44.23-89.8,66.59-145.76,59.07
	c-3.31-0.44-5.62-1.2-6.94-2.27C225.34,408.27,224.43,405.72,224.78,402.36z"/>
<path d="M209.81,113.46c1.12,4.01,0,7.21-3.36,9.61l-1.79,0.83c-12.7,4.99-24.45,11.63-35.24,19.92c-2.79,2.14-4.87,3.34-6.24,3.61
	c-2.66,0.51-5.16-0.39-7.49-2.68c-3.03-4.55-2.61-8.4,1.28-11.54c11.81-9.53,24.73-17.2,38.76-23.01c1.53-0.64,2.91-1.15,4.13-1.52
	C204.18,107.35,208.03,109.34,209.81,113.46z"/>
<path class="st3" d="M224.73,109.45c0.37,1.83,1.35,3.46,2.93,4.91c-6.89,2.37-13.48,5.21-19.77,8.54
	c-0.29,0.15-0.77,0.21-1.44,0.17c3.36-2.4,4.48-5.6,3.36-9.61L224.73,109.45z"/>
<path class="st4" d="M227.66,114.36c1.86,1.46,3.64,2.06,5.34,1.79C286.02,107.91,338.49,129,370.07,172
	c25.9,35.26,34.13,80.07,22.45,122.03c-12.32,44.23-45.57,79.83-88.31,95.24c-22.5,8.11-45.98,10.35-70.45,6.71
	c-2.09-0.31-4.08,0.22-5.97,1.61c-6.49-2.09-12.76-4.71-18.8-7.86c-0.61-0.32-1.02-0.25-1.24,0.22l-3.35-2.29
	c-24.85-14.23-44-32.93-57.44-56.12c-13.8-23.82-20.59-49.32-20.36-76.51c0.23-26.47,6.78-50.89,19.67-73.26
	c13.89-24.13,33.09-43.1,57.6-56.9c0.49-0.27,0.76-0.6,0.79-0.97l1.79-0.83c0.67,0.04,1.15-0.02,1.44-0.17
	C214.18,119.57,220.77,116.73,227.66,114.36z M233.72,259.04c-7.13-6.98-15.76-15.61-25.91-25.88c-5.74-5.81-10.01-9.48-12.81-11.01
	c-22.38-12.15-49.18,3.99-48.84,29.43c0.11,8.68,3.5,16.39,10.15,23.13c2.41,2.44,18.96,19.02,49.66,49.74
	c5.75,5.75,10.02,9.35,12.83,10.8c9.29,4.8,21.29,4.94,30.56-0.13c3.18-1.74,6.33-4.18,9.44-7.32
	c56.07-56.55,88.61-89.43,97.61-98.64c15.15-15.53,11.76-41.02-7.18-51.78c-13.46-7.66-29.45-4.68-40.3,6.3
	c-25.2,25.53-50.06,50.64-74.58,75.35C234.14,259.24,233.93,259.25,233.72,259.04z"/>
<path class="st3" d="M204.66,123.9c-0.03,0.37-0.3,0.7-0.79,0.97c-24.51,13.8-43.71,32.77-57.6,56.9
	c-12.89,22.37-19.44,46.79-19.67,73.26c-0.23,27.19,6.56,52.69,20.36,76.51c13.44,23.19,32.59,41.89,57.44,56.12
	c-12.71-4.66-24.31-11.08-34.8-19.26c-2.89-2.25-4.98-3.53-6.27-3.82c-2.73-0.62-5.29,0.26-7.7,2.65l-10.91-10.91
	c2.13-2.1,3.06-4.44,2.77-7.01c-0.17-1.57-1.2-3.57-3.09-6c-8.06-10.38-14.59-21.64-19.59-33.79c-1.29-3.15-2.54-5.19-3.74-6.14
	c-2.09-1.65-4.68-2.05-7.78-1.19l-3.8-14.93c3.06-0.81,5.07-2.47,6.02-4.98c0.53-1.41,0.58-3.77,0.14-7.07
	c-1.71-12.78-1.71-25.56-0.01-38.34c0.45-3.39,0.41-5.79-0.12-7.18c-0.95-2.51-2.99-4.18-6.12-5.01l3.99-14.94
	c3.11,0.86,5.7,0.45,7.78-1.24c1.13-0.93,2.35-2.97,3.66-6.13c5.03-12.2,11.94-23.9,20.72-35.09c3.15-4.02,2.88-7.92-0.81-11.69
	l10.95-10.84c2.33,2.29,4.83,3.19,7.49,2.68c1.37-0.27,3.45-1.47,6.24-3.61C180.21,135.53,191.96,128.89,204.66,123.9z"/>
<path d="M144.74,155.59c3.69,3.77,3.96,7.67,0.81,11.69c-8.78,11.19-15.69,22.89-20.72,35.09c-1.31,3.16-2.53,5.2-3.66,6.13
	c-2.08,1.69-4.67,2.1-7.78,1.24c-2.92-1.41-4.59-3.45-5-6.12c-0.26-1.65,0.22-3.98,1.44-6.98c5.55-13.64,12.86-26.25,21.93-37.82
	c1.96-2.51,3.73-4.04,5.32-4.59C139.57,153.36,142.12,153.82,144.74,155.59z"/>
<path d="M234.35,259.03c24.52-24.71,49.38-49.82,74.58-75.35c10.85-10.98,26.84-13.96,40.3-6.3c18.94,10.76,22.33,36.25,7.18,51.78
	c-9,9.21-41.54,42.09-97.61,98.64c-3.11,3.14-6.26,5.58-9.44,7.32c-9.27,5.07-21.27,4.93-30.56,0.13
	c-2.81-1.45-7.08-5.05-12.83-10.8c-30.7-30.72-47.25-47.3-49.66-49.74c-6.65-6.74-10.04-14.45-10.15-23.13
	c-0.34-25.44,26.46-41.58,48.84-29.43c2.8,1.53,7.07,5.2,12.81,11.01c10.15,10.27,18.78,18.9,25.91,25.88
	C233.93,259.25,234.14,259.24,234.35,259.03z M229.31,277.31c-6.96-6.79-17.42-17.22-31.39-31.29c-5.07-5.11-7.98-7.94-8.74-8.49
	c-11.62-8.53-27.44-0.07-27.01,14.03c0.14,4.38,2.03,8.39,5.67,12.03c17.53,17.54,34.81,34.82,51.83,51.84
	c3.35,3.35,6.13,5.47,8.34,6.36c5.23,2.11,10.63,1.34,16.19-2.32c0.43-0.28,2.3-2.08,5.61-5.41c30.35-30.55,60.65-61.17,90.88-91.85
	c3.56-3.61,5.59-5.75,6.09-6.41c1.98-2.63,2.99-5.48,3.02-8.57c0.09-6.91-2.41-11.98-7.49-15.23c-6.84-4.38-15.47-3.54-21.13,2.18
	c-14.83,14.99-42.03,42.46-81.58,82.42c-2.06,2.07-4.43,2.77-7.1,2.1C230.91,278.29,229.84,277.83,229.31,277.31z"/>
<path class="st5" d="M232.5,278.7c2.67,0.67,5.04-0.03,7.1-2.1c39.55-39.96,66.75-67.43,81.58-82.42
	c5.66-5.72,14.29-6.56,21.13-2.18c5.08,3.25,7.58,8.32,7.49,15.23c-0.03,3.09-1.04,5.94-3.02,8.57c-0.5,0.66-2.53,2.8-6.09,6.41
	c-30.23,30.68-60.53,61.3-90.88,91.85c-3.31,3.33-5.18,5.13-5.61,5.41c-5.56,3.66-10.96,4.43-16.19,2.32
	c-2.21-0.89-4.99-3.01-8.34-6.36c-17.02-17.02-34.3-34.3-51.83-51.84c-3.64-3.64-5.53-7.65-5.67-12.03
	c-0.43-14.1,15.39-22.56,27.01-14.03c0.76,0.55,3.67,3.38,8.74,8.49c13.97,14.07,24.43,24.5,31.39,31.29
	C229.84,277.83,230.91,278.29,232.5,278.7z"/>
<path d="M109.4,224.68c3.13,0.83,5.17,2.5,6.12,5.01c0.53,1.39,0.57,3.79,0.12,7.18c-1.7,12.78-1.7,25.56,0.01,38.34
	c0.44,3.3,0.39,5.66-0.14,7.07c-0.95,2.51-2.96,4.17-6.02,4.98c-3.17,0.23-5.61-0.64-7.34-2.62c-1.11-1.28-1.89-3.5-2.33-6.65
	c-2.31-16.33-2.19-31.84,0.34-46.51C100.99,226.69,104.07,224.42,109.4,224.68z"/>
<path class="st2" d="M477.99,287.3l0.32-62.42l10.13,3.94c0.31,0.12,0.47,0.35,0.47,0.68v53.39c0,0.12-0.08,0.23-0.2,0.28
	L477.99,287.3z"/>
<path class="st2" d="M449.89,299.98c-2.31,8.52-3.88,14.07-4.73,16.66c-4.85,14.9-11.53,29.47-20.06,43.72
	c-1.7,2.84-1.03,5.55,0.33,8.64c4.75,10.76,9.5,21.49,14.26,32.19c0.1,0.22,0.05,0.47-0.12,0.64l-37.53,37.53
	c-0.25,0.25-0.54,0.31-0.87,0.17l-4.77-2.02l33.77-33.89c0.19-0.19,0.23-0.4,0.12-0.65l-16.93-38.09c-0.21-0.47-0.19-0.93,0.08-1.37
	c11.25-18.47,19.38-38.12,24.39-58.95c0.09-0.34,0.34-0.62,0.68-0.73L449.89,299.98z"/>
<path d="M144.72,356.32c-4.6,3-8.58,2.39-11.95-1.83c-9.35-11.73-17.14-25.12-23.36-40.18c-2.25-5.45-0.96-9.49,3.88-12.12
	c3.1-0.86,5.69-0.46,7.78,1.19c1.2,0.95,2.45,2.99,3.74,6.14c5,12.15,11.53,23.41,19.59,33.79c1.89,2.43,2.92,4.43,3.09,6
	C147.78,351.88,146.85,354.22,144.72,356.32z"/>
<path d="M204.4,387.66l3.35,2.29c2.29,2.58,2.96,5.44,2,8.57c-1.31,2.83-3.24,4.52-5.79,5.07c-1.69,0.36-3.97-0.04-6.86-1.2
	c-13.89-5.59-26.71-13.01-38.46-22.27c-2.45-1.93-3.94-3.7-4.47-5.33c-0.8-2.48-0.31-5,1.46-7.56c2.41-2.39,4.97-3.27,7.7-2.65
	c1.29,0.29,3.38,1.57,6.27,3.82C180.09,376.58,191.69,383,204.4,387.66z"/>
<path class="st3" d="M227.79,397.59c-1.47,1.17-2.48,2.76-3.01,4.77l-15.03-3.84c0.96-3.13,0.29-5.99-2-8.57
	c0.22-0.47,0.63-0.54,1.24-0.22C215.03,392.88,221.3,395.5,227.79,397.59z"/>
<path class="st2" d="M296.49,454.09l-13.21,34.29c-0.13,0.32-0.36,0.48-0.7,0.48l-9.8,0.05l12.03-31.43
	c0.09-0.24,0.26-0.39,0.5-0.45L296.49,454.09z"/>
</svg>
