<?xml version="1.0" encoding="utf-8"?>
<!-- Generator: Adobe Illustrator 28.2.0, SVG Export Plug-In . SVG Version: 6.00 Build 0)  -->
<svg version="1.1" id="Layer_1" xmlns="http://www.w3.org/2000/svg" xmlns:xlink="http://www.w3.org/1999/xlink" x="0px" y="0px"
	 viewBox="0 0 512 512" style="enable-background:new 0 0 512 512;" xml:space="preserve">
<style type="text/css">
	.st0{fill:#EDA151;}
	.st1{fill:#89DFE9;}
	.st2{fill:#4F5967;}
</style>
<path d="M503.14,423.11c-25.34-25.35-53.64-53.65-84.91-84.9c-0.2-0.2-0.52-0.2-0.72,0l-15.15,15.15c-0.32,0.32-0.64,0.32-0.96,0
	l-32.78-32.78c-0.29-0.28-0.31-0.74-0.05-1.04c11.74-13.95,19.34-29.65,22.79-47.09c6.32-31.99-2.86-65.23-24.77-89.31
	c-16.78-18.43-37.89-29.56-63.32-33.37c-0.18-0.03-0.27-0.13-0.27-0.31V37.77c0-0.19-0.16-0.34-0.35-0.34H68.98
	c-0.37,0-0.73,0.15-1,0.41L0,105.29v363.13l302.58-0.01c0.28,0,0.42-0.14,0.42-0.42v-87.03c0-0.36-0.18-0.54-0.54-0.54h-13.92
	c-0.3,0-0.54,0.24-0.54,0.54v72c0,0.31-0.15,0.47-0.46,0.47H15.33c-0.18,0-0.33-0.15-0.33-0.33V116.97c0-0.3,0.24-0.54,0.54-0.54h63
	c0.31,0,0.46-0.16,0.46-0.47V52.71c0-0.15,0.13-0.28,0.28-0.28h208.31c0.27,0,0.41,0.14,0.41,0.41v95.68c0,0.29-0.23,0.52-0.51,0.53
	c-17.15,0.44-33.72,4.95-48.51,13.4c-17.43,9.95-30.94,23.85-40.53,41.68c-3.19,5.93-5.72,12.08-7.6,18.45
	c-5.97,20.27-5.87,40.51,0.31,60.72c1.93,6.31,4.54,12.43,7.81,18.36c11.59,21.05,28.41,36.36,50.44,45.91
	c12.89,5.59,26.35,8.34,40.39,8.25c25.61-0.16,48.02-8.42,67.21-24.79c0.25-0.22,0.63-0.21,0.87,0.03l33.14,33.14c0,0,0,0,0.01,0.01
	c0.13,0.13,0.13,0.35-0.01,0.49l-15.42,15.43c-0.18,0.18-0.18,0.47,0,0.64c53.75,53.8,82.1,82.12,85.05,84.96
	c11.61,11.15,29.07,11.77,41.23,1.14c6.13-5.36,9.5-12.44,10.12-21.23V443C511.34,434.99,508.39,428.36,503.14,423.11z
	 M63.79,101.33l-37.59,0.19c-0.08,0-0.16-0.03-0.22-0.09c-0.12-0.12-0.12-0.32,0-0.44l37.39-37.78c0.06-0.06,0.14-0.09,0.22-0.09
	c0.17,0,0.31,0.14,0.31,0.31l0.2,37.59C64.1,101.19,63.96,101.33,63.79,101.33z M289.88,340.86c-48.83,0-88.42-39.59-88.42-88.42
	s39.59-88.42,88.42-88.42s88.42,39.59,88.42,88.42S338.71,340.86,289.88,340.86z M492.61,455.04l-0.14,0.14
	c-5.87,5.87-15.53,5.73-21.58-0.31l-74.13-74.13c-0.16-0.16-0.16-0.42,0-0.58l20.83-20.83c0.16-0.16,0.42-0.16,0.58,0l74.13,74.13
	C498.34,439.51,498.48,449.17,492.61,455.04z"/>
<path class="st0" d="M492.61,455.04l-0.14,0.14c-5.87,5.87-15.53,5.73-21.58-0.31l-74.13-74.13c-0.16-0.16-0.16-0.42,0-0.58
	l20.83-20.83c0.16-0.16,0.42-0.16,0.58,0l74.13,74.13C498.34,439.51,498.48,449.17,492.61,455.04z"/>
<path class="st1" d="M64.1,101.02c0,0.17-0.14,0.31-0.31,0.31l-37.59,0.19c-0.08,0-0.16-0.03-0.22-0.09c-0.12-0.12-0.12-0.32,0-0.44
	l37.39-37.78c0.06-0.06,0.14-0.09,0.22-0.09c0.17,0,0.31,0.14,0.31,0.31L64.1,101.02z"/>
<path d="M64.43,149.43h111.14c0.24,0,0.43,0.19,0.43,0.43V164c0,0.24-0.19,0.43-0.43,0.43H64.43c-0.24,0-0.43-0.19-0.43-0.43v-14.14
	C64,149.62,64.19,149.43,64.43,149.43z"/>
<path d="M64.43,181.43h79.14c0.24,0,0.43,0.19,0.43,0.43V196c0,0.24-0.19,0.43-0.43,0.43H64.43c-0.24,0-0.43-0.19-0.43-0.43v-14.14
	C64,181.62,64.19,181.43,64.43,181.43z"/>
<path d="M359.07,247.09c-11.71-12.33-25.45-21.81-41.2-28.42c-6.54-2.74-13.41-4.48-20.62-5.21c-3.4-0.35-5.86-0.52-7.38-0.52
	c-1.51,0-3.97,0.17-7.37,0.52c-7.21,0.73-14.08,2.47-20.62,5.21c-15.75,6.62-29.49,16.1-41.2,28.43c-0.24,0.25-0.23,0.5,0.03,0.73
	l10.51,9.39c0.16,0.14,0.4,0.13,0.55-0.02c5.88-6.09,12.54-11.54,19.97-16.35c0.36-0.23,0.48-0.15,0.36,0.26
	c-2.4,8.15-2.1,17.2,0.84,24.95c3.79,9.97,10.53,17.3,20.23,21.99c5.28,2.55,10.85,3.83,16.71,3.83s11.43-1.28,16.71-3.83
	c9.7-4.69,16.44-12.02,20.22-22c2.94-7.75,3.24-16.8,0.84-24.95c-0.12-0.41,0-0.49,0.36-0.26c7.43,4.81,14.09,10.26,19.97,16.35
	c0.15,0.15,0.39,0.16,0.55,0.02l10.51-9.39C359.3,247.59,359.31,247.34,359.07,247.09z M307.15,269.7
	c-4.42,4.42-10.53,7.15-17.27,7.15s-12.85-2.73-17.27-7.15c-4.42-4.42-7.15-10.52-7.15-17.27c0-13.49,10.93-24.42,24.42-24.42
	s24.42,10.93,24.42,24.42C314.3,259.18,311.57,265.28,307.15,269.7z"/>
<path class="st2" d="M314.3,252.43c0,6.75-2.73,12.85-7.15,17.27c-4.42,4.42-10.53,7.15-17.27,7.15s-12.85-2.73-17.27-7.15
	c-4.42-4.42-7.15-10.52-7.15-17.27c0-13.49,10.93-24.42,24.42-24.42S314.3,238.94,314.3,252.43z"/>
<path d="M64.43,229.43h111.14c0.24,0,0.43,0.19,0.43,0.43V244c0,0.24-0.19,0.43-0.43,0.43H64.43c-0.24,0-0.43-0.19-0.43-0.43v-14.14
	C64,229.62,64.19,229.43,64.43,229.43z"/>
<path d="M64.43,261.43h79.14c0.24,0,0.43,0.19,0.43,0.43V276c0,0.24-0.19,0.43-0.43,0.43H64.43c-0.24,0-0.43-0.19-0.43-0.43v-14.14
	C64,261.62,64.19,261.43,64.43,261.43z"/>
<path d="M64.43,309.43h111.14c0.24,0,0.43,0.19,0.43,0.43V324c0,0.24-0.19,0.43-0.43,0.43H64.43c-0.24,0-0.43-0.19-0.43-0.43v-14.14
	C64,309.62,64.19,309.43,64.43,309.43z"/>
<path d="M64.43,341.43h63.14c0.24,0,0.43,0.19,0.43,0.43V356c0,0.24-0.19,0.43-0.43,0.43H64.43c-0.24,0-0.43-0.19-0.43-0.43v-14.14
	C64,341.62,64.19,341.43,64.43,341.43z"/>
</svg>
