<?xml version="1.0" encoding="utf-8"?>
<!-- Generator: Adobe Illustrator 28.2.0, SVG Export Plug-In . SVG Version: 6.00 Build 0)  -->
<svg version="1.1" id="Layer_1" xmlns="http://www.w3.org/2000/svg" xmlns:xlink="http://www.w3.org/1999/xlink" x="0px" y="0px"
	 viewBox="0 0 512 512" style="enable-background:new 0 0 512 512;" xml:space="preserve">
<style type="text/css">
	.st0{fill:#6DBFF2;}
	.st1{fill:#1F4C73;}
</style>
<path class="st0" d="M254.9,42.8l2.5,0c11.1,0,20.1,9,20.1,20.1l-0.3,151.7c0,11.1-9,20.1-20.1,20.1l-2.5,0
	c-11.1,0-20.1-9-20.1-20.1l0.3-151.7C234.8,51.8,243.8,42.8,254.9,42.8z"/>
<path class="st1" d="M169.1,399.2c33.2,22.9,69.8,31.4,109.9,25.6c25.1-3.6,48.1-13.4,68.9-29.4c5.5-4.2,10.5-8.6,14.9-13.2
	c25.4-26.3,39.4-57.9,42.2-94.7c4.1-55.4-25.1-107.8-70.6-137.9c-5-3.3-8-5.5-9.1-6.7c-5.8-6.2-8.4-14.9-3.8-22.6
	c3.9-6.5,9.4-10.3,16.8-11.3c6.1-0.8,12.1,0.7,18.2,4.4c36.9,23,63.1,54.7,78.8,95c8.2,21.2,12.5,43.9,12.7,68
	c0.1,7-0.2,13.6-0.9,20c-4.9,45.5-23.2,84.4-55,116.7c-4.8,4.9-9.8,9.4-14.8,13.4c-35.2,28.1-75.6,42.4-121.3,42.7
	c-6.8,0-13.5-0.3-19.9-1c-45.2-5-83.8-23.3-116-54.9c-4.7-4.6-9.2-9.6-13.4-14.8C79.4,364.3,65.1,325.1,64,280.8
	c-0.9-34.9,8.6-70.1,25.8-99.9c14.9-25.7,34.6-46.7,59.3-63.2c6.6-4.5,11.3-7.2,13.9-8.2c11.1-4.2,21.5,0.9,27.3,10.6
	c2.4,4,3.1,8.2,2,12.6c-1.4,5.6-4.1,9.7-8,12.4c-7.3,5-11,7.6-11.1,7.6c-43.1,30.6-70.1,81.4-66.2,134.8c2.9,39,18.4,72.1,46.6,99.1
	C158.5,391.3,163.7,395.5,169.1,399.2z"/>
</svg>
