<?xml version="1.0" encoding="utf-8"?>
<!-- Generator: Adobe Illustrator 28.2.0, SVG Export Plug-In . SVG Version: 6.00 Build 0)  -->
<svg version="1.1" id="Layer_1" xmlns="http://www.w3.org/2000/svg" xmlns:xlink="http://www.w3.org/1999/xlink" x="0px" y="0px"
	 viewBox="0 0 512 512" style="enable-background:new 0 0 512 512;" xml:space="preserve">
<style type="text/css">
	.st0{fill:none;}
	.st1{fill:#6D91AC;}
	.st2{fill:#60A4FF;}
	.st3{fill:#FFFFFF;}
</style>
<g>
	<path vector-effect="non-scaling-stroke" class="st0" d="M200,100c36.6,0,73.2,0,109.8-0.1c0.2,0,0.2-0.1,0.2-0.2V60.3
		c0-0.2-0.1-0.3-0.3-0.3c-44.6,0-67.4,0-68.2,0c-5.3,0-8.8-2-10.6-6c-0.9-2-0.9-3.9-1.1-6.5C228.6,32,215.6,20,200,20
		S171.4,32,170.2,47.5c-0.2,2.6-0.2,4.6-1.1,6.5c-1.8,4-5.3,6-10.6,6c-0.9,0-23.6,0-68.2,0c-0.2,0-0.3,0.1-0.3,0.3v39.4
		c0,0.2,0.1,0.2,0.2,0.2C126.8,100,163.4,100,200,100"/>
	<path vector-effect="non-scaling-stroke" class="st0" d="M234.9,462c0.8-6.7,4.5-10.1,11.1-10.1c31.3,0,62.5,0,93.7,0
		c0.2,0,0.3-0.1,0.3-0.3V110.5c0-0.3-0.2-0.5-0.5-0.5h-11.7c-0.3,0-0.6,0.1-0.7,0.4c-4.2,6.4-10.2,9.6-17.9,9.6c-2.7,0-75.1,0-217,0
		c-9,0-15.5-3.2-19.3-9.6c-0.1-0.2-0.4-0.4-0.7-0.4H60.5c-0.3,0-0.5,0.2-0.5,0.5v341.2c0,0.1,0.1,0.3,0.3,0.3c31.3,0,62.6,0,94,0
		c6.4,0,10.1,3.4,10.9,10.1"/>
	<path vector-effect="non-scaling-stroke" class="st0" d="M165.1,462c-0.8,6.6-4.4,10-10.9,10c-33.9,0-67.8,0-101.7,0
		c-2.9,0-5.1-0.3-6.5-0.9c-2.3-1-4-2.5-5-4.7c-0.7-1.6-1.1-4.6-1.1-8.9c0-118.3,0-236.6,0-354.9c0-2.9,0.3-5,0.8-6.4
		c0.9-2.3,2.5-3.9,4.6-5c1.8-0.9,4.7-1.3,8.8-1.2c2.8,0.1,8,0.1,15.5,0c0.1,0,0.3-0.1,0.3-0.3V70.3c0-0.2-0.1-0.3-0.3-0.3
		c-12.3,0-24.6,0-37,0c-2.9,0-5,0.3-6.4,0.8c-2.3,0.9-4,2.4-5.1,4.5C20.4,76.8,20,79.8,20,84c0,211.5,0,343.6-0.1,396.3
		c0,7.8,3.8,11.7,11.5,11.7c87,0,198.8,0,335.6,0c3.1,0,5.3-0.3,6.6-0.8c2.4-0.9,4.1-2.5,5.2-4.7c0.7-1.6,1.1-4.6,1.1-9.1
		c0-132.3,0-264.6,0-396.9c0-4.2-1.6-7.2-4.7-9c-1.8-1-4.8-1.6-8.8-1.6c-13.6,0-25.6,0-35.9,0.1c-0.3,0-0.5,0.2-0.5,0.5v18.9
		c0,0.3,0.2,0.5,0.5,0.5c7.4,0.1,12.7,0.1,15.7,0c3.1-0.1,5.4,0.2,7,0.7c2.6,0.8,4.5,2.4,5.6,4.8c0.7,1.5,1.1,4.6,1.1,9.3
		c0,118.2,0,236.3,0,354.5c0,2.9-0.2,5-0.7,6.3c-0.9,2.3-2.3,3.9-4.3,5c-1.6,0.9-4.5,1.3-8.6,1.3c-32.6,0-65.3,0-97.9,0
		c-4,0-6.8-0.5-8.5-1.4c-2.9-1.7-4.6-4.5-5-8.5"/>
	<path vector-effect="non-scaling-stroke" class="st0" d="M165.1,462H190"/>
	<path vector-effect="non-scaling-stroke" class="st0" d="M190,462c0.7,13.1,19.3,13.1,20.1,0"/>
	<path vector-effect="non-scaling-stroke" class="st0" d="M210,462l24.9,0"/>
	<path vector-effect="non-scaling-stroke" class="st0" d="M210,462c-0.5-13.1-19.1-13.4-20.1,0"/>
	<path vector-effect="non-scaling-stroke" class="st0" d="M210,50c0-5.5-4.5-10-10-10l0,0c-5.5,0-10,4.5-10,10c0,0,0,0,0,0
		c0,5.5,4.5,10,10,10l0,0C205.5,60,210,55.5,210,50C210,50,210,50,210,50"/>
	<path vector-effect="non-scaling-stroke" class="st0" d="M136.8,266.1c9.4,0,18-3.1,25.7-9.4c4.1-3.4,6.6-7.3,4.8-12.6
		c-1.7-5.1-7.4-8-12.5-6.2c-0.9,0.3-2.7,1.5-5.3,3.5c-3.9,3-8.1,4.6-12.7,4.6c-4.6,0-8.8-1.5-12.7-4.6c-2.6-2-4.4-3.2-5.3-3.6
		c-5.1-1.8-10.8,1-12.5,6.2c-1.7,5.2,0.7,9.2,4.8,12.6C118.8,263,127.4,266.1,136.8,266.1"/>
	<path vector-effect="non-scaling-stroke" class="st0" d="M263.2,266.1c10.3,0,19-3.8,26.9-10.5c5.8-5,5.6-13.4-1.2-17.1
		c-2.6-1.4-5.4-1.5-8.3-0.4c-2.3,0.9-4.5,3.5-6.5,4.7c-3.5,2.2-7.1,3.3-10.9,3.3c-3.8,0-7.4-1.1-10.9-3.2c-1.9-1.2-4.2-3.9-6.5-4.7
		c-3-1.1-5.7-1-8.3,0.4c-6.8,3.6-7,12.1-1.2,17.1C244.2,262.3,252.9,266.1,263.2,266.1"/>
	<path vector-effect="non-scaling-stroke" class="st0" d="M224,314.2c0-5.3-4.3-9.5-9.5-9.5h-28.9c-5.3,0-9.5,4.3-9.5,9.5v0.8
		c0,5.3,4.3,9.5,9.5,9.5h28.9c5.3,0,9.5-4.3,9.5-9.5V314.2"/>
</g>
<path d="M202.9,0c16.1,1.4,28.7,8.4,37.9,21c3.6,5,6.4,11.2,8.2,18.5c0.1,0.3,0.3,0.5,0.6,0.5c2.3,0,19.2,0,50.7,0
	c8.1,0,12.9,0.2,14.5,0.6c5.1,1.2,9.2,4.3,12.4,9.1c0.1,0.2,0.4,0.3,0.6,0.3c16.5,0,30.6,0,42.2,0c13.1,0.1,24.7,8.6,28.6,20.9
	c0.9,2.9,1.4,7.4,1.4,13.6c0,131.1,0,262.2,0,393.3c0,5.7-0.5,10-1.4,13c-2.7,8.8-8.5,15.1-17.5,19.1c-2,0.9-4.9,1.6-8.8,2.1H27.6
	c-15.8-2.4-25-11.6-27.6-27.4V77.5c0.6-4.7,1.8-8.7,3.6-11.9c6.1-10.6,15.6-15.8,28.7-15.7C50,50,63.2,50.1,72.2,50
	c0.3,0,0.5-0.1,0.7-0.4c4.2-6.4,10.3-9.7,18.1-9.6c4.6,0,24.5,0,59.6,0c0.2,0,0.4-0.1,0.5-0.4c1.7-7.5,4.9-14.3,9.7-20.4
	C170,7.7,182.2,1.3,197.1,0H202.9z M200,100c36.6,0,73.2,0,109.8-0.1c0.2,0,0.2-0.1,0.2-0.2V60.3c0-0.2-0.1-0.3-0.3-0.3
	c-44.6,0-67.4,0-68.2,0c-5.3,0-8.8-2-10.6-6c-0.9-2-0.9-3.9-1.1-6.5C228.6,32,215.6,20,200,20S171.4,32,170.2,47.5
	c-0.2,2.6-0.2,4.6-1.1,6.5c-1.8,4-5.3,6-10.6,6c-0.9,0-23.6,0-68.2,0c-0.2,0-0.3,0.1-0.3,0.3v39.4c0,0.2,0.1,0.2,0.2,0.2
	C126.8,100,163.4,100,200,100z M234.9,462c0.8-6.7,4.5-10.1,11.1-10.1c31.3,0,62.5,0,93.7,0c0.2,0,0.3-0.1,0.3-0.3V110.5
	c0-0.3-0.2-0.5-0.5-0.5h-11.7c-0.3,0-0.6,0.1-0.7,0.4c-4.2,6.4-10.2,9.6-17.9,9.6c-2.7,0-75.1,0-217,0c-9,0-15.5-3.2-19.3-9.6
	c-0.1-0.2-0.4-0.4-0.7-0.4H60.5c-0.3,0-0.5,0.2-0.5,0.5v341.2c0,0.1,0.1,0.3,0.3,0.3c31.3,0,62.6,0,94,0c6.4,0,10.1,3.4,10.9,10.1
	c-0.8,6.6-4.4,10-10.9,10c-33.9,0-67.8,0-101.7,0c-2.9,0-5.1-0.3-6.5-0.9c-2.3-1-4-2.5-5-4.7c-0.7-1.6-1.1-4.6-1.1-8.9
	c0-118.3,0-236.6,0-354.9c0-2.9,0.3-5,0.8-6.4c0.9-2.3,2.5-3.9,4.6-5c1.8-0.9,4.7-1.3,8.8-1.2c2.8,0.1,8,0.1,15.5,0
	c0.1,0,0.3-0.1,0.3-0.3V70.3c0-0.2-0.1-0.3-0.3-0.3c-12.3,0-24.6,0-37,0c-2.9,0-5,0.3-6.4,0.8c-2.3,0.9-4,2.4-5.1,4.5
	C20.4,76.8,20,79.8,20,84c0,211.5,0,343.6-0.1,396.3c0,7.8,3.8,11.7,11.5,11.7c87,0,198.8,0,335.6,0c3.1,0,5.3-0.3,6.6-0.8
	c2.4-0.9,4.1-2.5,5.2-4.7c0.7-1.6,1.1-4.6,1.1-9.1c0-132.3,0-264.6,0-396.9c0-4.2-1.6-7.2-4.7-9c-1.8-1-4.8-1.6-8.8-1.6
	c-13.6,0-25.6,0-35.9,0.1c-0.3,0-0.5,0.2-0.5,0.5v18.9c0,0.3,0.2,0.5,0.5,0.5c7.4,0.1,12.7,0.1,15.7,0c3.1-0.1,5.4,0.2,7,0.7
	c2.6,0.8,4.5,2.4,5.6,4.8c0.7,1.5,1.1,4.6,1.1,9.3c0,118.2,0,236.3,0,354.5c0,2.9-0.2,5-0.7,6.3c-0.9,2.3-2.3,3.9-4.3,5
	c-1.6,0.9-4.5,1.3-8.6,1.3c-32.6,0-65.3,0-97.9,0c-4,0-6.8-0.5-8.5-1.4C237,468.9,235.3,466,234.9,462z"/>
<path d="M503.4,0c4.6,1.1,7.5,3.9,8.6,8.5v2.9c-0.4,1.9-1.1,3.4-2,4.6c-9.2,12.3-18.4,24.6-27.6,36.8c-0.1,0.1-0.1,0.3,0.1,0.4
	c0.1,0,0.1,0.1,0.2,0.1c5.4,0,10.8,0,16.3,0c3.8,0,6.5,0.5,8.1,1.4c2.6,1.5,4.3,3.9,5,7.3v2.4c-1.3,5.9-4.9,8.9-10.8,8.9
	c-12.3,0-24.6,0-36.9,0c-3,0-5.2-0.3-6.6-0.9c-4.2-1.9-6.6-6.9-5.5-11.4c0.3-1.3,1.3-3.1,3-5.3c8.8-11.8,17.6-23.5,26.4-35.2
	c0.1-0.1,0.1-0.3-0.1-0.4c-0.1,0-0.1-0.1-0.2-0.1c-7.4,0-12.5,0-15.4,0c-4.2,0.1-7.1-0.4-8.8-1.3c-4.1-2.3-6-7-4.8-11.5
	c1.1-3.8,3.8-6.2,8.2-7.3H503.4z"/>
<path class="st1" d="M200,20c15.6,0,28.6,11.9,29.8,27.5c0.2,2.6,0.2,4.6,1.1,6.5c1.8,4,5.3,6,10.6,6c0.9,0,23.6,0,68.2,0
	c0.2,0,0.3,0.1,0.3,0.3v39.4c0,0.2-0.1,0.2-0.2,0.2c-36.6,0-73.2,0.1-109.8,0.1s-73.2,0-109.8-0.1c-0.2,0-0.2-0.1-0.2-0.2V60.3
	c0-0.2,0.1-0.3,0.3-0.3c44.6,0,67.4,0,68.2,0c5.3,0,8.8-2,10.6-6c0.9-2,0.9-3.9,1.1-6.5C171.4,32,184.4,20,200,20z M210,50
	c0-5.5-4.5-10-10-10l0,0c-5.5,0-10,4.5-10,10c0,0,0,0,0,0c0,5.5,4.5,10,10,10l0,0C205.5,60,210,55.5,210,50C210,50,210,50,210,50z"
	/>
<circle cx="200" cy="50" r="10"/>
<path class="st2" d="M165.1,462H190c0.7,13.1,19.3,13.1,20.1,0l24.9,0c0.4,4,2.1,6.8,5,8.5c1.7,1,4.5,1.4,8.5,1.4
	c32.6,0,65.3,0,97.9,0c4.1,0,7-0.4,8.6-1.3c2-1.1,3.5-2.8,4.3-5c0.5-1.3,0.7-3.4,0.7-6.3c0-118.2,0-236.3,0-354.5
	c0-4.7-0.4-7.8-1.1-9.3c-1.1-2.4-3-4-5.6-4.8c-1.6-0.5-4-0.7-7-0.7c-3.1,0.1-8.3,0.1-15.7,0c-0.3,0-0.5-0.2-0.5-0.5V70.5
	c0-0.3,0.2-0.5,0.5-0.5c10.4,0,22.3-0.1,35.9-0.1c4.1,0,7,0.5,8.8,1.6c3.2,1.8,4.7,4.8,4.7,9c0,132.3,0,264.6,0,396.9
	c0,4.5-0.4,7.5-1.1,9.1c-1,2.2-2.8,3.8-5.2,4.7c-1.3,0.5-3.6,0.8-6.6,0.8c-136.8,0-248.7,0-335.6,0c-7.7,0-11.5-3.9-11.5-11.7
	C20,427.6,20,295.5,20,84c0-4.2,0.4-7.2,1.2-8.8c1.1-2.1,2.8-3.6,5.1-4.5c1.3-0.5,3.5-0.8,6.4-0.8c12.3,0,24.7,0,37,0
	c0.1,0,0.3,0.1,0.3,0.3v19.4c0,0.1-0.1,0.3-0.3,0.3c-7.5,0-12.6,0-15.5,0c-4.1-0.1-7,0.3-8.8,1.2c-2.1,1-3.7,2.7-4.6,5
	c-0.6,1.4-0.8,3.5-0.8,6.4c0,118.3,0,236.6,0,354.9c0,4.4,0.4,7.4,1.1,8.9c1,2.2,2.7,3.8,5,4.7c1.4,0.6,3.6,0.9,6.5,0.9
	c33.9,0,67.8,0,101.7,0C160.7,472,164.3,468.7,165.1,462z"/>
<path d="M437.9,127.4c0.8-1.2,1.7-2.4,2.7-3.6c0.1-0.1,0.1-0.4,0-0.5c-0.1-0.1-0.1-0.1-0.2-0.1c-2.3,0-4.7,0-7.1,0.1
	c-2.8,0-4.9-0.3-6.3-0.9c-5.3-2.5-7.4-8.5-4.7-13.7c1.8-3.4,4.8-5.2,9.1-5.3c0.7,0,10,0,27.9,0c2.8,0,4.7,0.3,5.9,0.8
	c2.2,1.1,3.7,2.5,4.7,4.4c1.4,2.7,1.7,5.3,0.8,7.8c-0.4,1.2-1.8,3.2-4,6c-4.5,5.4-8.6,11.1-12.4,16.9c-0.8,1.2-1.7,2.4-2.7,3.6
	c-0.1,0.1-0.1,0.4,0,0.5c0.1,0.1,0.1,0.1,0.2,0.1c2.3,0,4.7,0,7.1-0.1c2.8,0,4.9,0.3,6.3,0.9c5.3,2.5,7.4,8.5,4.7,13.7
	c-1.8,3.4-4.8,5.2-9.1,5.3c-0.7,0-10,0-27.9,0c-2.8,0-4.7-0.3-5.9-0.9c-2.2-1.1-3.7-2.5-4.7-4.4c-1.4-2.7-1.7-5.3-0.8-7.8
	c0.4-1.2,1.8-3.2,4-6C430,138.9,434.1,133.3,437.9,127.4z"/>
<path class="st3" d="M234.9,462l-24.9,0c-0.5-13.1-19.1-13.4-20.1,0h-24.9c-0.8-6.7-4.4-10.1-10.9-10.1c-31.3,0-62.7,0-94,0
	c-0.1,0-0.3-0.1-0.3-0.3V110.5c0-0.3,0.2-0.5,0.5-0.5h11.7c0.3,0,0.6,0.2,0.7,0.4c3.9,6.4,10.3,9.6,19.3,9.6c141.9,0,214.3,0,217,0
	c7.7,0,13.6-3.2,17.9-9.6c0.2-0.3,0.4-0.4,0.7-0.4h11.7c0.3,0,0.5,0.2,0.5,0.5v341.2c0,0.2-0.1,0.3-0.3,0.3c-31.2,0-62.5,0-93.7,0
	C239.4,452,235.7,455.3,234.9,462z M136.8,266.1c9.4,0,18-3.1,25.7-9.4c4.1-3.4,6.6-7.3,4.8-12.6c-1.7-5.1-7.4-8-12.5-6.2
	c-0.9,0.3-2.7,1.5-5.3,3.5c-3.9,3-8.1,4.6-12.7,4.6c-4.6,0-8.8-1.5-12.7-4.6c-2.6-2-4.4-3.2-5.3-3.6c-5.1-1.8-10.8,1-12.5,6.2
	c-1.7,5.2,0.7,9.2,4.8,12.6C118.8,263,127.4,266.1,136.8,266.1z M263.2,266.1c10.3,0,19-3.8,26.9-10.5c5.8-5,5.6-13.4-1.2-17.1
	c-2.6-1.4-5.4-1.5-8.3-0.4c-2.3,0.9-4.5,3.5-6.5,4.7c-3.5,2.2-7.1,3.3-10.9,3.3c-3.8,0-7.4-1.1-10.9-3.2c-1.9-1.2-4.2-3.9-6.5-4.7
	c-3-1.1-5.7-1-8.3,0.4c-6.8,3.6-7,12.1-1.2,17.1C244.2,262.3,252.9,266.1,263.2,266.1z M224,314.2c0-5.3-4.3-9.5-9.5-9.5h-28.9
	c-5.3,0-9.5,4.3-9.5,9.5v0.8c0,5.3,4.3,9.5,9.5,9.5h28.9c5.3,0,9.5-4.3,9.5-9.5V314.2z"/>
<path d="M136.8,246.1c4.6,0,8.8-1.5,12.7-4.6c2.6-2,4.4-3.2,5.3-3.5c5.1-1.8,10.8,1,12.5,6.2c1.7,5.2-0.7,9.2-4.8,12.6
	c-7.7,6.2-16.3,9.4-25.7,9.4s-18-3.1-25.7-9.4c-4.1-3.4-6.5-7.4-4.8-12.6c1.7-5.1,7.4-8,12.5-6.2c0.9,0.3,2.7,1.5,5.3,3.6
	C128,244.6,132.2,246.1,136.8,246.1z"/>
<path d="M263.2,246.1c3.8,0,7.4-1.1,10.9-3.3c1.9-1.2,4.2-3.9,6.5-4.7c3-1.1,5.7-1,8.3,0.4c6.8,3.6,7,12.1,1.2,17.1
	c-7.9,6.7-16.6,10.5-26.9,10.5c-10.3,0-19.1-3.8-26.9-10.4c-5.8-5-5.6-13.4,1.2-17.1c2.6-1.4,5.4-1.5,8.3-0.4
	c2.3,0.8,4.6,3.5,6.5,4.7C255.8,245,259.4,246.1,263.2,246.1z"/>
<path d="M185.5,304.7h28.9c5.3,0,9.5,4.3,9.5,9.5v0.8c0,5.3-4.3,9.5-9.5,9.5h-28.9c-5.3,0-9.5-4.3-9.5-9.5v-0.8
	C176,308.9,180.3,304.7,185.5,304.7z"/>
<path d="M210,462c-0.7,13.1-19.4,13.1-20.1,0C190.9,448.6,209.5,448.9,210,462z"/>
</svg>
