<?xml version="1.0" encoding="utf-8"?>
<!-- Generator: Adobe Illustrator 28.2.0, SVG Export Plug-In . SVG Version: 6.00 Build 0)  -->
<svg version="1.1" id="Layer_1" xmlns="http://www.w3.org/2000/svg" xmlns:xlink="http://www.w3.org/1999/xlink" x="0px" y="0px"
	 viewBox="0 0 512 512" style="enable-background:new 0 0 512 512;" xml:space="preserve">
<style type="text/css">
	.st0{fill:none;}
	.st1{fill:#ECF2F3;}
	.st2{fill:#CECDF3;}
</style>
<g>
	<path vector-effect="non-scaling-stroke" class="st0" d="M414.7,68c-2.7,2.7-5.6,3.9-8.9,3.5c-1.9-0.2-4.3-1.5-7.3-3.7
		c-6-4.5-10-7.3-11.8-8.5c-47.8-31.1-100.1-43.8-156.8-37.9c-34.4,3.6-68.2,15.5-97,33.2c-78.7,48.5-122,137.1-111.3,229.2
		c0.9,7.3,1.9,13.9,3.1,19.7c10.7,50.9,35.5,93.8,74.4,128.8c0.1,0.1,0.3,0.1,0.4,0c0,0,0.1-0.1,0.1-0.1
		c10.5-47.9,41.7-87.8,85.7-109.7c53.7-26.8,120-20.5,167.6,16.2c30.9,23.9,50.8,55.1,59.6,93.6c0,0.1,0.1,0.2,0.2,0.2
		c0,0,0.1,0,0.1-0.1c21.8-19.3,39.5-42,53-68c15.3-29.5,23.9-61.4,25.7-95.6c2.5-48.2-8.7-93.2-33.6-135c-3.1-5.1-2.1-9.8,3-13.9"/>
	<path vector-effect="non-scaling-stroke" class="st0" d="M256,492c27.7,0,54.7-4.7,80.9-14.1c19.6-7.1,38.8-17.2,57.5-30.5
		c0.3-0.2,0.4-0.5,0.3-0.8c-3.7-25.4-13.1-47.6-28.1-66.7C339.7,345.6,299.4,326,256,326c-43.4,0-83.7,19.5-110.6,53.8
		c-15,19.1-24.4,41.4-28.1,66.7c0,0.3,0.1,0.6,0.3,0.8c18.7,13.3,37.8,23.5,57.5,30.5C201.3,487.3,228.3,492,256,492"/>
	<path vector-effect="non-scaling-stroke" class="st0" d="M432.8,84.9c-4.5,5.6-3.5,12.6,2.7,16c3.2,1.8,6.8,1.4,10.7-1"/>
	<path vector-effect="non-scaling-stroke" class="st0" d="M346,196c0-49.7-40.3-90-90-90l0,0c-49.7,0-90,40.3-90,90l0,0
		c0,49.7,40.3,90,90,90l0,0C305.7,286,346,245.7,346,196L346,196"/>
	<path vector-effect="non-scaling-stroke" class="st0" d="M326,196c0-38.6-31.3-70-70-70l0,0c-38.6,0-70,31.3-70,70s31.3,70,70,70
		S326,234.6,326,196L326,196"/>
</g>
<path d="M261.4,0c56.7,1.6,107,19.3,151.1,53.3c5.1,3.9,5.8,8.8,2.2,14.7c-2.7,2.7-5.6,3.9-8.9,3.5c-1.9-0.2-4.3-1.5-7.3-3.7
	c-6-4.5-10-7.3-11.8-8.5c-47.8-31.1-100.1-43.8-156.8-37.9c-34.4,3.6-68.2,15.5-97,33.2c-78.7,48.5-122,137.1-111.3,229.2
	c0.9,7.3,1.9,13.9,3.1,19.7c10.7,50.9,35.5,93.8,74.4,128.8c0.1,0.1,0.3,0.1,0.4,0c0,0,0.1-0.1,0.1-0.1
	c10.5-47.9,41.7-87.8,85.7-109.7c53.7-26.8,120-20.5,167.6,16.2c30.9,23.9,50.8,55.1,59.6,93.6c0,0.1,0.1,0.2,0.2,0.2
	c0,0,0.1,0,0.1-0.1c21.8-19.3,39.5-42,53-68c15.3-29.5,23.9-61.4,25.7-95.6c2.5-48.2-8.7-93.2-33.6-135c-3.1-5.1-2.1-9.8,3-13.9
	c6.2-2.9,11-1.6,14.3,3.8c22.9,37.9,35.1,79.6,36.7,125.2v14.5c-2.8,64.4-25.4,119.8-68.1,166.4c-4.5,4.9-9.2,9.6-14.1,14.1
	c-46.5,42.7-102,65.4-166.4,68.1h-14.9c-37.2-1.3-71.8-9.7-103.7-25.3c-30.4-14.9-56.5-34.3-78.2-58.5C24.9,382,2.7,327.2,0,263.9
	v-15.5c2.5-61.8,23.7-115.5,63.5-161.2c24.4-28,55.3-50.6,88.9-65.5c30.1-13.3,62-20.5,95.9-21.6H261.4z M256,492
	c27.7,0,54.7-4.7,80.9-14.1c19.6-7.1,38.8-17.2,57.5-30.5c0.3-0.2,0.4-0.5,0.3-0.8c-3.7-25.4-13.1-47.6-28.1-66.7
	C339.7,345.6,299.4,326,256,326c-43.4,0-83.7,19.5-110.6,53.8c-15,19.1-24.4,41.4-28.1,66.7c0,0.3,0.1,0.6,0.3,0.8
	c18.7,13.3,37.8,23.5,57.5,30.5C201.3,487.3,228.3,492,256,492z"/>
<path class="st1" d="M414.7,68l18.1,16.9c-4.5,5.6-3.5,12.6,2.7,16c3.2,1.8,6.8,1.4,10.7-1l14.8,19.9c-5.1,4.1-6,8.8-3,13.9
	c24.9,41.8,36.1,86.8,33.6,135c-1.8,34.3-10.4,66.1-25.7,95.6c-13.5,26-31.2,48.7-53,68c-0.1,0.1-0.2,0.1-0.3,0c0,0,0-0.1-0.1-0.1
	c-8.8-38.5-28.7-69.7-59.6-93.6c-47.6-36.7-113.9-43-167.6-16.2c-44,21.9-75.2,61.8-85.7,109.7c0,0.2-0.2,0.3-0.4,0.2
	c0,0-0.1,0-0.1-0.1c-38.9-35-63.7-77.9-74.4-128.8c-1.2-5.8-2.3-12.4-3.1-19.7C10.9,191.9,54.3,103.2,133,54.7
	c28.8-17.8,62.5-29.7,97-33.2c56.7-5.9,109,6.7,156.8,37.9c1.8,1.2,5.7,4,11.8,8.5c3,2.2,5.4,3.4,7.3,3.7
	C409,71.9,412,70.7,414.7,68z M346,196c0-49.7-40.3-90-90-90l0,0c-49.7,0-90,40.3-90,90l0,0c0,49.7,40.3,90,90,90l0,0
	C305.7,286,346,245.7,346,196L346,196z"/>
<path d="M446.2,99.9c-3.9,2.4-7.4,2.7-10.7,1c-6.2-3.4-7.2-10.4-2.7-16c4.5-3.4,8.7-3.8,12.3-1.3C451.2,87.6,451.6,94.8,446.2,99.9z
	"/>
<path d="M346,196c0,49.7-40.3,90-90,90l0,0c-49.7,0-90-40.3-90-90l0,0c0-49.7,40.3-90,90-90l0,0C305.7,106,346,146.3,346,196
	L346,196z M326,196c0-38.6-31.3-70-70-70l0,0c-38.6,0-70,31.3-70,70s31.3,70,70,70S326,234.6,326,196L326,196z"/>
<circle class="st2" cx="256" cy="196" r="70"/>
<path class="st2" d="M256,326c43.4,0,83.7,19.6,110.6,53.8c15,19.1,24.4,41.4,28.1,66.7c0,0.3-0.1,0.6-0.3,0.8
	c-18.7,13.3-37.9,23.5-57.5,30.5c-26.2,9.4-53.1,14.1-80.9,14.1s-54.7-4.7-80.9-14.2c-19.6-7.1-38.8-17.3-57.5-30.5
	c-0.3-0.2-0.4-0.5-0.3-0.8c3.8-25.4,13.1-47.6,28.1-66.7C172.3,345.5,212.6,326,256,326z"/>
</svg>
