<?xml version="1.0" encoding="utf-8"?>
<!-- Generator: Adobe Illustrator 28.2.0, SVG Export Plug-In . SVG Version: 6.00 Build 0)  -->
<svg version="1.1" id="Layer_1" xmlns="http://www.w3.org/2000/svg" xmlns:xlink="http://www.w3.org/1999/xlink" x="0px" y="0px"
	 viewBox="0 0 512 512" style="enable-background:new 0 0 512 512;" xml:space="preserve">
<style type="text/css">
	.st0{fill:none;}
	.st1{fill:#BD80E1;}
	.st2{fill:#DD7F66;}
	.st3{fill:#CB97E7;}
	.st4{fill:#DEECF1;}
	.st5{fill:#EEF5F6;}
	.st6{fill:#6CF5C2;}
	.st7{fill:#E49280;}
</style>
<g>
	<path vector-effect="non-scaling-stroke" class="st0" d="M326.59,116.98c-4.05,3.36-7.82,3.28-11.31-0.24
		c-6.02-6.07-12.08-12.12-18.17-18.17c-2.01-2-3.6-3.18-4.78-3.54c-6.3-1.93-11.93,3.43-10.56,9.53c0.34,1.52,1.74,3.51,4.19,5.96
		c37.81,37.79,75.89,75.88,114.26,114.26c1.84,1.83,3.66,4.06,6.15,5.09c3.9,1.61,8.71-0.39,10.35-4.48
		c1.37-3.45,0.77-6.47-1.81-9.05c-0.55-0.55-25.13-25.13-73.75-73.75c-3.62-3.62-3.76-7.42-0.41-11.41"/>
	<path vector-effect="non-scaling-stroke" class="st0" d="M457.81,361.45c-3.05,1.61-6.04,1.15-8.99-1.38
		c-0.37-0.32-0.78-0.93-1.23-1.83c-1.77-3.61-5.29-5.34-8.76-3.42c-4,2.23-3.15,5.56-2.52,10.11c0.49,3.54,1.72,12.31,3.69,26.32
		c0.37,2.63,0.88,4.43,1.55,5.4c1.29,1.87,3.25,2.62,5.87,2.25c19.87-2.8,30.04-4.23,30.49-4.29c2.23-0.3,3.73-0.7,4.51-1.19
		c5.54-3.54,2.48-11.89-4.31-10.98c-2.05,0.27-5.01,0.74-6.86-0.12c-2.93-1.37-4.51-3.58-4.72-6.64c-0.09-1.27,0.7-3.48,2.35-6.65
		c16.77-32.17,25.99-65.25,27.66-99.26c2.57-52.37-10-100.3-37.72-143.77c-4.04-6.33-7.84-11.79-11.39-16.38
		c-30.83-39.78-70.22-67.51-118.17-83.19c-29.34-9.6-61.29-13.06-91.71-10.65c-41.68,3.31-80.02,16.47-115.01,39.5
		c-3.29,2.17-3.18,7.4,0.12,9.77c2.18,1.57,4.69,1.44,7.52-0.39c41.92-27.07,87.9-39.49,137.94-37.27
		c5.99,0.27,12.66,0.93,19.99,1.98c23.34,3.36,45.2,9.91,65.58,19.66c45.99,22.01,81.09,55.71,105.28,101.12
		c2.74,5.15,5.54,11.17,8.39,18.07c9.13,22.11,14.66,44.54,16.6,67.29c3.63,42.57-3.76,82.82-22.19,120.73
		C460.42,359.03,459.1,360.77,457.81,361.45"/>
	<path vector-effect="non-scaling-stroke" class="st0" d="M267.98,141.94c-7.55,6.81-13.33,13.47-17.34,19.96
		c-13.37,21.63-16,45.05-7.87,70.26c0.75,2.31,1.11,3.97,1.09,4.98c-0.04,1.77-0.85,3.36-2.44,4.78c-2.35,2.09-4.9,2.64-7.64,1.63
		c-30.32-11.14-63.02-4.06-86.11,18.63c-4.55,4.47-11.08,10.99-19.58,19.54c-0.18,0.19-0.18,0.37,0,0.55l80.39,80.41"/>
	<path vector-effect="non-scaling-stroke" class="st0" d="M208.48,362.68l21.25,21.23c0.19,0.19,0.39,0.19,0.58,0
		c8.62-8.53,15.4-15.35,20.34-20.46c13.91-14.38,21.54-31.86,22.89-52.43c0.69-10.39-1.06-21.43-5.23-33.12
		c-0.58-1.63-0.46-3.43,0.36-5.41"/>
	<path vector-effect="non-scaling-stroke" class="st0" d="M268.67,272.49c2.2-3.88,5.35-5.16,9.45-3.85
		c5.43,1.74,9.22,2.84,11.38,3.29"/>
	<path vector-effect="non-scaling-stroke" class="st0" d="M289.5,271.93c17.82,3.72,34.86,1.85,51.11-5.6
		c9.03-4.14,17.46-10.13,25.27-17.96c6.05-6.05,12.07-12.11,18.07-18.16c0.16-0.17,0.16-0.33,0-0.49L282.38,128.16
		c-0.23-0.24-0.47-0.24-0.71,0l-13.69,13.78"/>
	<path vector-effect="non-scaling-stroke" class="st0" d="M289.5,271.93c6.39-2.17,12.03-3.85,16.9-5.05
		c5.11-1.26,9.59-3.41,13.44-6.44"/>
	<path vector-effect="non-scaling-stroke" class="st0" d="M319.84,260.44c16.25-3.57,29.85-11.47,40.82-23.71
		c2.09-2.33,3.23-4.23,3.42-5.7c0.31-2.46-0.6-4.76-2.73-6.91c-5.23-5.27-10.47-10.51-15.73-15.72c-1.57-1.56-3.35-2.7-5.37-2.72
		c-3.33-0.02-6.64-0.02-9.95-0.01"/>
	<path vector-effect="non-scaling-stroke" class="st0" d="M330.3,205.67c-0.82-2.19-1.73-3.79-2.72-4.78
		c-18.42-18.41-36.83-36.82-55.23-55.25c-0.77-0.77-2.22-2-4.37-3.7"/>
	<path vector-effect="non-scaling-stroke" class="st0" d="M330.3,205.67c-23.49-0.01-46.98-0.01-70.47,0
		c-3.74,0-6.35,0.66-8.19,3.81c-1.42,2.44-0.97,5.05-0.4,8.02c0.77,4.03,1.67,7.46,2.71,10.31c3.11,8.53,5.46,14.77,7.03,18.72
		c0.89,2.23,2.52,3.78,4.91,4.67c5.03,1.85,9.84,3.67,14.44,5.46c5.53,2.15,10.43,3.59,14.72,4.3c8.16,1.35,16.42,1.18,24.79-0.52"
		/>
	<path vector-effect="non-scaling-stroke" class="st0" d="M268.67,272.49l-15.46-1.22"/>
	<path vector-effect="non-scaling-stroke" class="st0" d="M253.21,271.27c-0.85-2.14-1.8-4.28-2.85-6.43
		c-0.88-1.79-2.33-3.07-4.36-3.84c-7.61-2.89-12.51-4.73-14.7-5.54c-6.47-2.4-11.47-3.86-15.02-4.37
		c-24.21-3.51-48.34,5.81-64.67,23.85c-1.99,2.2-3.17,4.03-3.55,5.5c-0.67,2.59,0.02,4.91,2.06,6.94
		c22.32,22.28,44.61,44.57,66.87,66.86"/>
	<path vector-effect="non-scaling-stroke" class="st0" d="M216.99,354.24l-8.51,8.44"/>
	<path vector-effect="non-scaling-stroke" class="st0" d="M253.21,271.27c3.51,8.4,5.96,17.03,7.36,25.9
		c2.55,16.23-0.34,31.29-8.68,45.2c-3.38,5.63-8.34,11.62-14.89,17.97c-2.11,2.05-3.92,3.25-5.43,3.6
		c-2.67,0.62-4.99-0.07-6.96-2.06c-2.51-2.55-5.05-5.1-7.62-7.64"/>
	<path vector-effect="non-scaling-stroke" class="st0" d="M228.05,414.96c3.17-3.17,3.17-8.3,0-11.47L108.51,283.95
		c-3.17-3.17-8.3-3.17-11.47,0l-0.08,0.08c-3.17,3.17-3.17,8.3,0,11.47l119.54,119.54c3.17,3.17,8.3,3.17,11.47,0L228.05,414.96"/>
	<path vector-effect="non-scaling-stroke" class="st0" d="M242.66,477.01c-1.14,5.12-4.53,7.35-10.16,6.7
		c-23.7-2.73-45.6-8.36-65.71-16.87c-6.04-2.55-12.04-5.43-18.01-8.63c-41.17-22.07-72.87-53.79-95.09-95.14
		c-2.93-5.46-5.78-11.46-8.53-18.01C19,282.84,21.46,213.56,51.43,153.2c2.75-5.55,9.77-5.66,13.25-0.54c1,1.47,0.98,4.43,2.47,5.91
		c3.42,3.36,8.54,2.33,10.17-2.16c0.41-1.13,0.31-2.91-0.28-5.36c-0.45-1.86-2.82-11.86-7.11-29.99c-0.63-2.67-2.11-4.23-4.45-4.68
		c-1.15-0.22-3.06-0.01-5.75,0.63c-15.17,3.61-24.25,5.77-27.25,6.46c-2.54,0.58-4.17,1.23-4.9,1.95
		c-3.56,3.55-2.04,8.84,2.73,10.31c1,0.31,2.49,0,3.81-0.09c4.18-0.27,7.57,2.81,7.95,6.67c0.15,1.53-0.52,3.8-2.01,6.82
		c-17.79,36.17-26.09,73.99-24.9,113.47c0.83,27.59,5.86,53.46,15.09,77.62c19.21,50.26,51.31,89.94,96.31,119.05
		c5.37,3.47,11.11,6.8,17.23,9.97c47.63,24.7,97.96,32.86,150.98,24.49c33.15-5.24,64.16-17.22,93.04-35.94
		c1.8-1.17,2.95-2.17,3.44-3.02c2.06-3.57-1.37-8.76-5.06-9.02c-1.13-0.09-2.89,0.63-5.26,2.15
		c-34.05,21.77-70.63,33.94-109.73,36.52c-4.81,0.32-7.65-2.06-8.52-7.13"/>
	<path vector-effect="non-scaling-stroke" class="st0" d="M267.5,221.29l6.1,16.33c0.13,0.34,0.39,0.6,0.73,0.73
		c7.77,2.93,11.73,4.42,11.9,4.49c4.81,1.77,8.86,2.88,12.14,3.32c18.11,2.44,33.87-2.78,47.27-15.65c0.25-0.23,0.26-0.63,0.03-0.88
		c-0.01-0.01-0.01-0.01-0.02-0.02l-8.64-8.64c-0.2-0.2-0.47-0.31-0.75-0.31h-68.33c-0.25,0-0.46,0.2-0.46,0.46
		C267.47,221.18,267.48,221.24,267.5,221.29"/>
	<path vector-effect="non-scaling-stroke" class="st0" d="M197.97,313.99c17.85,17.87,28.41,28.43,31.67,31.68
		c0.2,0.19,0.51,0.19,0.71-0.01c0,0,0,0,0,0c13.91-14.32,18.83-31.46,14.74-51.43c-0.51-2.49-2.08-7.28-4.73-14.37
		c-0.11-0.28-0.41-1.27-0.9-2.98c-0.34-1.17-0.86-2.11-1.55-2.8c-0.69-0.69-1.63-1.21-2.8-1.55c-1.71-0.49-2.7-0.79-2.98-0.9
		c-7.08-2.65-11.87-4.24-14.36-4.75c-19.97-4.1-37.12,0.8-51.45,14.71c-0.2,0.19-0.2,0.51-0.01,0.71c0,0,0,0,0,0
		C169.56,285.56,180.12,296.12,197.97,313.99"/>
</g>
<path d="M261.48,0c37.75,1.02,72.9,9.45,105.47,25.29c55.81,27.15,100.56,73.31,124.77,130.95c12.35,29.43,19.11,60.24,20.28,92.43
	v13.81c-1.12,37.06-9.7,72.22-25.74,105.49c-0.14,0.29-0.06,0.5,0.24,0.63c6.37,2.61,10.57,6.95,12.62,13.02
	c3.38,10.03-1.19,21.08-10.75,25.66c-1.91,0.91-5.02,1.67-9.34,2.3c-15.92,2.29-25.74,3.69-29.46,4.18
	c-2.52,0.33-4.93,0.25-7.22-0.24c-6.49-1.39-11.28-4.78-14.38-10.17c-1.27-2.21-2.48-7.39-3.61-15.54
	c-1.45-10.46-2.46-17.68-3.05-21.65c-0.63-4.35-0.72-7.61-0.26-9.8c0.87-4.11,2.23-7.2,4.06-9.27c7.38-8.31,16.17-10.21,26.38-5.69
	c0.41,0.18,0.7,0.07,0.87-0.34c18.11-42.95,22.21-87.01,12.28-132.18c-1.58-7.19-3.32-13.59-5.23-19.21
	c-16.41-48.25-45.53-86.02-87.37-113.31c-25.93-16.91-56.49-28.35-87.64-32.35c-46.05-5.91-89.7,2.15-130.97,24.16
	c-3.41,1.82-9.22,5.35-17.43,10.6c-1.49,0.95-3.88,1.68-7.17,2.17c-7.45,1.12-14.96-2.2-19.44-8.1c-5.58-7.34-5.74-17.7-0.21-25.12
	c1.74-2.33,4.94-4.95,9.59-7.88C158.93,14.62,203,1.34,250.98,0H261.48z M457.81,361.45c-3.05,1.61-6.04,1.15-8.99-1.38
	c-0.37-0.32-0.78-0.93-1.23-1.83c-1.77-3.61-5.29-5.34-8.76-3.42c-4,2.23-3.15,5.56-2.52,10.11c0.49,3.54,1.72,12.31,3.69,26.32
	c0.37,2.63,0.88,4.43,1.55,5.4c1.29,1.87,3.25,2.62,5.87,2.25c19.87-2.8,30.04-4.23,30.49-4.29c2.23-0.3,3.73-0.7,4.51-1.19
	c5.54-3.54,2.48-11.89-4.31-10.98c-2.05,0.27-5.01,0.74-6.86-0.12c-2.93-1.37-4.51-3.58-4.72-6.64c-0.09-1.27,0.7-3.48,2.35-6.65
	c16.77-32.17,25.99-65.25,27.66-99.26c2.57-52.37-10-100.3-37.72-143.77c-4.04-6.33-7.84-11.79-11.39-16.38
	c-30.83-39.78-70.22-67.51-118.17-83.19c-29.34-9.6-61.29-13.06-91.71-10.65c-41.68,3.31-80.02,16.47-115.01,39.5
	c-3.29,2.17-3.18,7.4,0.12,9.77c2.18,1.57,4.69,1.44,7.52-0.39c41.92-27.07,87.9-39.49,137.94-37.27
	c5.99,0.27,12.66,0.93,19.99,1.98c23.34,3.36,45.2,9.91,65.58,19.66c45.99,22.01,81.09,55.71,105.28,101.12
	c2.74,5.15,5.54,11.17,8.39,18.07c9.13,22.11,14.66,44.54,16.6,67.29c3.63,42.57-3.76,82.82-22.19,120.73
	C460.42,359.03,459.1,360.77,457.81,361.45z"/>
<path class="st1" d="M461.77,356.24c18.43-37.91,25.82-78.16,22.19-120.73c-1.94-22.75-7.47-45.18-16.6-67.29
	c-2.85-6.9-5.65-12.92-8.39-18.07c-24.19-45.41-59.29-79.11-105.28-101.12c-20.38-9.75-42.24-16.3-65.58-19.66
	c-7.33-1.05-14-1.71-19.99-1.98c-50.04-2.22-96.02,10.2-137.94,37.27c-2.83,1.83-5.34,1.96-7.52,0.39c-3.3-2.37-3.41-7.6-0.12-9.77
	c34.99-23.03,73.33-36.19,115.01-39.5c30.42-2.41,62.37,1.05,91.71,10.65c47.95,15.68,87.34,43.41,118.17,83.19
	c3.55,4.59,7.35,10.05,11.39,16.38c27.72,43.47,40.29,91.4,37.72,143.77c-1.67,34.01-10.89,67.09-27.66,99.26
	c-1.65,3.17-2.44,5.38-2.35,6.65c0.21,3.06,1.79,5.27,4.72,6.64c1.85,0.86,4.81,0.39,6.86,0.12c6.79-0.91,9.85,7.44,4.31,10.98
	c-0.78,0.49-2.28,0.89-4.51,1.19c-0.45,0.06-10.62,1.49-30.49,4.29c-2.62,0.37-4.58-0.38-5.87-2.25c-0.67-0.97-1.18-2.77-1.55-5.4
	c-1.97-14.01-3.2-22.78-3.69-26.32c-0.63-4.55-1.48-7.88,2.52-10.11c3.47-1.92,6.99-0.19,8.76,3.42c0.45,0.9,0.86,1.51,1.23,1.83
	c2.95,2.53,5.94,2.99,8.99,1.38C459.1,360.77,460.42,359.03,461.77,356.24z"/>
<path d="M326.59,116.98c-4.05,3.36-7.82,3.28-11.31-0.24c-6.02-6.07-12.08-12.12-18.17-18.17c-2.01-2-3.6-3.18-4.78-3.54
	c-6.3-1.93-11.93,3.43-10.56,9.53c0.34,1.52,1.74,3.51,4.19,5.96c37.81,37.79,75.89,75.88,114.26,114.26
	c1.84,1.83,3.66,4.06,6.15,5.09c3.9,1.61,8.71-0.39,10.35-4.48c1.37-3.45,0.77-6.47-1.81-9.05c-0.55-0.55-25.13-25.13-73.75-73.75
	c-3.62-3.62-3.76-7.42-0.41-11.41c3.95-2.88,7.63-2.62,11.04,0.79c24.49,24.5,48.99,49,73.5,73.49c6.52,6.52,8.85,15.77,5.8,24.45
	c-3.27,9.32-12.31,15.79-22.11,15.48c-5.32-0.17-9.8-1.67-13.43-4.51c-0.41-0.32-0.82-0.24-1.23,0.23
	c-0.5,0.56-6.83,6.8-18.98,18.71c-24.57,24.08-53.96,33.14-88.15,27.17c-0.33-0.05-0.47,0.08-0.41,0.41
	c4.98,28.02-0.43,53.23-16.22,75.64c-2.81,3.99-7.21,8.99-13.18,15c-6.01,6.05-11.53,11.55-16.54,16.49
	c-0.21,0.21-0.24,0.54-0.07,0.79c4.98,7,5.94,14.6,2.88,22.81c-2.35,6.3-8.46,11.62-15.29,13.43c-5.64,1.49-10.86,1.1-15.65-1.17
	c-2.69-1.28-6.57-4.45-11.62-9.5c-37.83-37.85-76.16-76.18-114.99-114.99c-7.28-7.28-8.63-19.33-3.15-28.2
	c7.25-11.73,22.61-14.65,33.73-6.45c0.24,0.18,0.57,0.15,0.78-0.06c5.38-5.49,11.01-11.14,16.89-16.94
	c6.05-5.99,11.07-10.37,15.05-13.14c22.36-15.57,47.43-20.87,75.21-15.88c0.33,0.06,0.46-0.07,0.4-0.4
	c-5.29-30.64,1.4-57.5,20.09-80.59c2.36-2.91,6.63-7.43,12.81-13.54c5.48-5.41,9.89-9.81,13.22-13.18c0.23-0.24,0.26-0.5,0.07-0.77
	c-5.03-7.41-5.96-15.1-2.79-23.08c2.26-5.7,7.49-10.61,13.57-12.73c5.91-2.06,11.79-1.79,17.63,0.82c2.53,1.13,5.61,3.55,9.23,7.26
	c1.69,1.73,7.32,7.32,16.88,16.77C329.13,109.15,329.42,112.88,326.59,116.98z M267.98,141.94c-7.55,6.81-13.33,13.47-17.34,19.96
	c-13.37,21.63-16,45.05-7.87,70.26c0.75,2.31,1.11,3.97,1.09,4.98c-0.04,1.77-0.85,3.36-2.44,4.78c-2.35,2.09-4.9,2.64-7.64,1.63
	c-30.32-11.14-63.02-4.06-86.11,18.63c-4.55,4.47-11.08,10.99-19.58,19.54c-0.18,0.19-0.18,0.37,0,0.55l80.39,80.41l21.25,21.23
	c0.19,0.19,0.39,0.19,0.58,0c8.62-8.53,15.4-15.35,20.34-20.46c13.91-14.38,21.54-31.86,22.89-52.43
	c0.69-10.39-1.06-21.43-5.23-33.12c-0.58-1.63-0.46-3.43,0.36-5.41c2.2-3.88,5.35-5.16,9.45-3.85c5.43,1.74,9.22,2.84,11.38,3.29
	c17.82,3.72,34.86,1.85,51.11-5.6c9.03-4.14,17.46-10.13,25.27-17.96c6.05-6.05,12.07-12.11,18.07-18.16c0.16-0.17,0.16-0.33,0-0.49
	L282.38,128.16c-0.23-0.24-0.47-0.24-0.71,0L267.98,141.94z M228.05,414.96c3.17-3.17,3.17-8.3,0-11.47L108.51,283.95
	c-3.17-3.17-8.3-3.17-11.47,0l-0.08,0.08c-3.17,3.17-3.17,8.3,0,11.47l119.54,119.54c3.17,3.17,8.3,3.17,11.47,0L228.05,414.96z"/>
<path class="st2" d="M326.59,116.98l14.16,14.2c-3.35,3.99-3.21,7.79,0.41,11.41c48.62,48.62,73.2,73.2,73.75,73.75
	c2.58,2.58,3.18,5.6,1.81,9.05c-1.64,4.09-6.45,6.09-10.35,4.48c-2.49-1.03-4.31-3.26-6.15-5.09
	c-38.37-38.38-76.45-76.47-114.26-114.26c-2.45-2.45-3.85-4.44-4.19-5.96c-1.37-6.1,4.26-11.46,10.56-9.53
	c1.18,0.36,2.77,1.54,4.78,3.54c6.09,6.05,12.15,12.1,18.17,18.17C318.77,120.26,322.54,120.34,326.59,116.98z"/>
<path d="M242.66,477.01c-1.14,5.12-4.53,7.35-10.16,6.7c-23.7-2.73-45.6-8.36-65.71-16.87c-6.04-2.55-12.04-5.43-18.01-8.63
	c-41.17-22.07-72.87-53.79-95.09-95.14c-2.93-5.46-5.78-11.46-8.53-18.01C19,282.84,21.46,213.56,51.43,153.2
	c2.75-5.55,9.77-5.66,13.25-0.54c1,1.47,0.98,4.43,2.47,5.91c3.42,3.36,8.54,2.33,10.17-2.16c0.41-1.13,0.31-2.91-0.28-5.36
	c-0.45-1.86-2.82-11.86-7.11-29.99c-0.63-2.67-2.11-4.23-4.45-4.68c-1.15-0.22-3.06-0.01-5.75,0.63
	c-15.17,3.61-24.25,5.77-27.25,6.46c-2.54,0.58-4.17,1.23-4.9,1.95c-3.56,3.55-2.04,8.84,2.73,10.31c1,0.31,2.49,0,3.81-0.09
	c4.18-0.27,7.57,2.81,7.95,6.67c0.15,1.53-0.52,3.8-2.01,6.82c-17.79,36.17-26.09,73.99-24.9,113.47
	c0.83,27.59,5.86,53.46,15.09,77.62c19.21,50.26,51.31,89.94,96.31,119.05c5.37,3.47,11.11,6.8,17.23,9.97
	c47.63,24.7,97.96,32.86,150.98,24.49c33.15-5.24,64.16-17.22,93.04-35.94c1.8-1.17,2.95-2.17,3.44-3.02
	c2.06-3.57-1.37-8.76-5.06-9.02c-1.13-0.09-2.89,0.63-5.26,2.15c-34.05,21.77-70.63,33.94-109.73,36.52
	c-4.81,0.32-7.65-2.06-8.52-7.13c0.2-3.01,1.34-5.19,3.43-6.53c1.15-0.73,3.32-1.23,6.52-1.5c35.65-2.94,68.49-13.9,98.52-32.89
	c4.55-2.87,7.97-4.59,10.27-5.15c18.24-4.49,32.71,18.25,21.52,33.03c-1.81,2.38-5.48,5.29-11.01,8.72
	c-39.81,24.68-83.42,37.69-130.83,39.03h-9.34c-37.61-0.84-72.66-9.03-105.17-24.57c-51.65-24.69-90.85-62.44-117.61-113.26
	c-3.16-6-6.02-12.02-8.57-18.07C8.03,326.74,1.23,295.99,0,263.84v-15.07c1.18-34.59,8.87-67.62,23.06-99.1
	c0.15-0.33,0.06-0.57-0.25-0.73c-5.61-2.91-9.3-7.05-11.06-12.4c-3.11-9.43,0.58-19.5,9.02-24.68c1.86-1.15,5.64-2.39,11.35-3.72
	c12.11-2.83,20.15-4.75,24.12-5.74c4.22-1.05,7.52-1.42,9.89-1.11c6.55,0.86,11.67,3.94,15.37,9.25c1.47,2.1,2.72,5.45,3.75,10.06
	c0.36,1.63,2.56,10.91,6.59,27.84c1.53,6.41,0.8,12.06-2.19,16.93c-2.91,4.75-7.08,7.9-12.51,9.45c-5.77,1.64-11.56,0.68-17.39-2.87
	c-0.24-0.14-0.55-0.07-0.7,0.17c-0.01,0.02-0.03,0.05-0.03,0.07c-20.09,49.19-22.36,98.82-6.81,148.88
	c1.91,6.13,4.24,12.38,7.01,18.77c17.37,40.12,44.3,72.08,80.79,95.87c5.65,3.68,11.38,7.04,17.21,10.08
	c23.63,12.32,49.81,20.05,78.53,23.18C240.1,469.44,242.41,472.12,242.66,477.01z"/>
<path class="st3" d="M242.66,477.01l20.02,0.28c0.87,5.07,3.71,7.45,8.52,7.13c39.1-2.58,75.68-14.75,109.73-36.52
	c2.37-1.52,4.13-2.24,5.26-2.15c3.69,0.26,7.12,5.45,5.06,9.02c-0.49,0.85-1.64,1.85-3.44,3.02c-28.88,18.72-59.89,30.7-93.04,35.94
	c-53.02,8.37-103.35,0.21-150.98-24.49c-6.12-3.17-11.86-6.5-17.23-9.97c-45-29.11-77.1-68.79-96.31-119.05
	c-9.23-24.16-14.26-50.03-15.09-77.62c-1.19-39.48,7.11-77.3,24.9-113.47c1.49-3.02,2.16-5.29,2.01-6.82
	c-0.38-3.86-3.77-6.94-7.95-6.67c-1.32,0.09-2.81,0.4-3.81,0.09c-4.77-1.47-6.29-6.76-2.73-10.31c0.73-0.72,2.36-1.37,4.9-1.95
	c3-0.69,12.08-2.85,27.25-6.46c2.69-0.64,4.6-0.85,5.75-0.63c2.34,0.45,3.82,2.01,4.45,4.68c4.29,18.13,6.66,28.13,7.11,29.99
	c0.59,2.45,0.69,4.23,0.28,5.36c-1.63,4.49-6.75,5.52-10.17,2.16c-1.49-1.48-1.47-4.44-2.47-5.91c-3.48-5.12-10.5-5.01-13.25,0.54
	C21.46,213.56,19,282.84,45.16,345.06c2.75,6.55,5.6,12.55,8.53,18.01c22.22,41.35,53.92,73.07,95.09,95.14
	c5.97,3.2,11.97,6.08,18.01,8.63c20.11,8.51,42.01,14.14,65.71,16.87C238.13,484.36,241.52,482.13,242.66,477.01z"/>
<path class="st4" d="M289.5,271.93c6.39-2.17,12.03-3.85,16.9-5.05c5.11-1.26,9.59-3.41,13.44-6.44
	c16.25-3.57,29.85-11.47,40.82-23.71c2.09-2.33,3.23-4.23,3.42-5.7c0.31-2.46-0.6-4.76-2.73-6.91
	c-5.23-5.27-10.47-10.51-15.73-15.72c-1.57-1.56-3.35-2.7-5.37-2.72c-3.33-0.02-6.64-0.02-9.95-0.01c-0.82-2.19-1.73-3.79-2.72-4.78
	c-18.42-18.41-36.83-36.82-55.23-55.25c-0.77-0.77-2.22-2-4.37-3.7l13.69-13.78c0.24-0.24,0.48-0.24,0.71,0l101.57,101.56
	c0.16,0.16,0.16,0.32,0,0.49c-6,6.05-12.02,12.11-18.07,18.16c-7.81,7.83-16.24,13.82-25.27,17.96
	C324.36,273.78,307.32,275.65,289.5,271.93z"/>
<path class="st5" d="M267.98,141.94c2.15,1.7,3.6,2.93,4.37,3.7c18.4,18.43,36.81,36.84,55.23,55.25c0.99,0.99,1.9,2.59,2.72,4.78
	c-23.49-0.01-46.98-0.01-70.47,0c-3.74,0-6.35,0.66-8.19,3.81c-1.42,2.44-0.97,5.05-0.4,8.02c0.77,4.03,1.67,7.46,2.71,10.31
	c3.11,8.53,5.46,14.77,7.03,18.72c0.89,2.23,2.52,3.78,4.91,4.67c5.03,1.85,9.84,3.67,14.44,5.46c5.53,2.15,10.43,3.59,14.72,4.3
	c8.16,1.35,16.42,1.18,24.79-0.52c-3.85,3.03-8.33,5.18-13.44,6.44c-4.87,1.2-10.51,2.88-16.9,5.05c-2.16-0.45-5.95-1.55-11.38-3.29
	c-4.1-1.31-7.25-0.03-9.45,3.85l-15.46-1.22c-0.85-2.14-1.8-4.28-2.85-6.43c-0.88-1.79-2.33-3.07-4.36-3.84
	c-7.61-2.89-12.51-4.73-14.7-5.54c-6.47-2.4-11.47-3.86-15.02-4.37c-24.21-3.51-48.34,5.81-64.67,23.85
	c-1.99,2.2-3.17,4.03-3.55,5.5c-0.67,2.59,0.02,4.91,2.06,6.94c22.32,22.28,44.61,44.57,66.87,66.86l-8.51,8.44l-80.39-80.41
	c-0.18-0.18-0.18-0.36,0-0.55c8.5-8.55,15.03-15.07,19.58-19.54c23.09-22.69,55.79-29.77,86.11-18.63c2.74,1.01,5.29,0.46,7.64-1.63
	c1.59-1.42,2.4-3.01,2.44-4.78c0.02-1.01-0.34-2.67-1.09-4.98c-8.13-25.21-5.5-48.63,7.87-70.26
	C254.65,155.41,260.43,148.75,267.98,141.94z"/>
<path d="M330.3,205.67c3.31-0.01,6.62-0.01,9.95,0.01c2.02,0.02,3.8,1.16,5.37,2.72c5.26,5.21,10.5,10.45,15.73,15.72
	c2.13,2.15,3.04,4.45,2.73,6.91c-0.19,1.47-1.33,3.37-3.42,5.7c-10.97,12.24-24.57,20.14-40.82,23.71
	c-8.37,1.7-16.63,1.87-24.79,0.52c-4.29-0.71-9.19-2.15-14.72-4.3c-4.6-1.79-9.41-3.61-14.44-5.46c-2.39-0.89-4.02-2.44-4.91-4.67
	c-1.57-3.95-3.92-10.19-7.03-18.72c-1.04-2.85-1.94-6.28-2.71-10.31c-0.57-2.97-1.02-5.58,0.4-8.02c1.84-3.15,4.45-3.81,8.19-3.81
	C283.32,205.66,306.81,205.66,330.3,205.67z M267.5,221.29l6.1,16.33c0.13,0.34,0.39,0.6,0.73,0.73c7.77,2.93,11.73,4.42,11.9,4.49
	c4.81,1.77,8.86,2.88,12.14,3.32c18.11,2.44,33.87-2.78,47.27-15.65c0.25-0.23,0.26-0.63,0.03-0.88c-0.01-0.01-0.01-0.01-0.02-0.02
	l-8.64-8.64c-0.2-0.2-0.47-0.31-0.75-0.31h-68.33c-0.25,0-0.46,0.2-0.46,0.46C267.47,221.18,267.48,221.24,267.5,221.29z"/>
<path class="st6" d="M267.5,221.29c-0.09-0.24,0.02-0.5,0.26-0.6c0.05-0.02,0.11-0.03,0.17-0.03h68.33c0.28,0,0.55,0.11,0.75,0.31
	l8.64,8.64c0.25,0.25,0.25,0.64,0.01,0.88c-0.01,0.01-0.01,0.01-0.02,0.02c-13.4,12.87-29.16,18.09-47.27,15.65
	c-3.28-0.44-7.33-1.55-12.14-3.32c-0.17-0.07-4.13-1.56-11.9-4.49c-0.34-0.13-0.6-0.39-0.73-0.73L267.5,221.29z"/>
<path d="M253.21,271.27c3.51,8.4,5.96,17.03,7.36,25.9c2.55,16.23-0.34,31.29-8.68,45.2c-3.38,5.63-8.34,11.62-14.89,17.97
	c-2.11,2.05-3.92,3.25-5.43,3.6c-2.67,0.62-4.99-0.07-6.96-2.06c-2.51-2.55-5.05-5.1-7.62-7.64
	c-22.26-22.29-44.55-44.58-66.87-66.86c-2.04-2.03-2.73-4.35-2.06-6.94c0.38-1.47,1.56-3.3,3.55-5.5
	c16.33-18.04,40.46-27.36,64.67-23.85c3.55,0.51,8.55,1.97,15.02,4.37c2.19,0.81,7.09,2.65,14.7,5.54c2.03,0.77,3.48,2.05,4.36,3.84
	C251.41,266.99,252.36,269.13,253.21,271.27z M197.97,313.99c17.85,17.87,28.41,28.43,31.67,31.68c0.2,0.19,0.51,0.19,0.71-0.01
	c0,0,0,0,0,0c13.91-14.32,18.83-31.46,14.74-51.43c-0.51-2.49-2.08-7.28-4.73-14.37c-0.11-0.28-0.41-1.27-0.9-2.98
	c-0.34-1.17-0.86-2.11-1.55-2.8c-0.69-0.69-1.63-1.21-2.8-1.55c-1.71-0.49-2.7-0.79-2.98-0.9c-7.08-2.65-11.87-4.24-14.36-4.75
	c-19.97-4.1-37.12,0.8-51.45,14.71c-0.2,0.19-0.2,0.51-0.01,0.71c0,0,0,0,0,0C169.56,285.56,180.12,296.12,197.97,313.99z"/>
<path class="st6" d="M237.91,274.08c0.69,0.69,1.21,1.63,1.55,2.8c0.49,1.71,0.79,2.7,0.9,2.98c2.65,7.09,4.22,11.88,4.73,14.37
	c4.09,19.97-0.83,37.11-14.74,51.43c-0.19,0.2-0.51,0.2-0.71,0.01c0,0,0,0,0,0c-3.26-3.25-13.82-13.81-31.67-31.68
	c-17.85-17.87-28.41-28.43-31.66-31.69c-0.19-0.2-0.19-0.51,0.01-0.71c0,0,0,0,0,0c14.33-13.91,31.48-18.81,51.45-14.71
	c2.49,0.51,7.28,2.1,14.36,4.75c0.28,0.11,1.27,0.41,2.98,0.9C236.28,272.87,237.22,273.39,237.91,274.08z"/>
<path class="st4" d="M268.67,272.49c-0.82,1.98-0.94,3.78-0.36,5.41c4.17,11.69,5.92,22.73,5.23,33.12
	c-1.35,20.57-8.98,38.05-22.89,52.43c-4.94,5.11-11.72,11.93-20.34,20.46c-0.19,0.19-0.39,0.19-0.58,0l-21.25-21.23l8.51-8.44
	c2.57,2.54,5.11,5.09,7.62,7.64c1.97,1.99,4.29,2.68,6.96,2.06c1.51-0.35,3.32-1.55,5.43-3.6c6.55-6.35,11.51-12.34,14.89-17.97
	c8.34-13.91,11.23-28.97,8.68-45.2c-1.4-8.87-3.85-17.5-7.36-25.9L268.67,272.49z"/>
<path class="st7" d="M108.51,283.95l119.54,119.54c3.17,3.17,3.17,8.3,0,11.47l-0.08,0.08c-3.17,3.17-8.3,3.17-11.47,0L96.95,295.51
	c-3.17-3.17-3.17-8.3,0-11.47l0.08-0.08C100.2,280.78,105.34,280.78,108.51,283.95z"/>
</svg>
