<?xml version="1.0" encoding="utf-8"?>
<!-- Generator: Adobe Illustrator 28.2.0, SVG Export Plug-In . SVG Version: 6.00 Build 0)  -->
<svg version="1.1" id="Layer_1" xmlns="http://www.w3.org/2000/svg" xmlns:xlink="http://www.w3.org/1999/xlink" x="0px" y="0px"
	 viewBox="0 0 512 512" style="enable-background:new 0 0 512 512;" xml:space="preserve">
<style type="text/css">
	.st0{fill:none;}
	.st1{fill:#F5F8F9;}
	.st2{fill:#FE646F;}
	.st3{fill:#C5D3DD;}
	.st4{fill:#8AC9FE;}
</style>
<g>
	<path vector-effect="non-scaling-stroke" class="st0" d="M444.31,283.75c-4.03-0.51-6.47-2.4-7.32-5.66
		c-0.21-0.77-0.31-3.52-0.31-8.23c0.02-74.4,0.02-133.64-0.01-177.72c0-0.34-0.17-0.51-0.51-0.51c-23.06-0.06-42.09-0.06-57.09,0.01
		c-3.89,0.02-6.84-0.4-8.87-1.26c-7.35-3.12-11-8.9-10.97-17.35c0.06-18.03,0.05-37.22-0.04-57.55c-0.01-0.32-0.17-0.48-0.49-0.48
		H190.05c-0.32,0-0.48,0.16-0.48,0.47c-0.07,22.36-0.08,47.47-0.05,75.33c0.01,4.94-0.09,7.9-0.3,8.88
		c-0.67,3.18-2.5,5.68-5.51,7.49c-4.61,2.79-9,2.88-13.17,0.27c-1.59-1-9.16-5.71-22.71-14.12c-0.18-0.11-0.4-0.11-0.58,0
		c-6.53,4.13-14.01,8.78-22.44,13.95c-3.41,2.09-6.88,2.54-10.41,1.34c-5.89-2-8.84-6.29-8.83-12.88c0.01-11.96,0-21.37-0.03-28.23
		c-0.01-4.67,2.52-7.27,7.59-7.78"/>
	<path vector-effect="non-scaling-stroke" class="st0" d="M113.13,59.72c3.22,0.4,5.41,1.78,6.56,4.14c0.6,1.23,0.89,3.54,0.88,6.94
		c-0.04,8.34-0.02,15.3,0.06,20.87c0.01,0.34,0.15,0.42,0.44,0.25c7.85-4.82,14.46-8.92,19.81-12.3c2.37-1.5,5.13-2.09,8.28-1.77
		c1.79,0.18,4.25,1.25,7.37,3.2c7.64,4.77,13.5,8.43,17.57,10.98c0.12,0.08,0.29,0.05,0.37-0.07c0.03-0.05,0.05-0.1,0.05-0.16V15.26
		c0-0.14-0.11-0.25-0.25-0.25h-53.21c-0.31,0-0.46,0.15-0.47,0.46c-0.05,5.66-0.05,11.25,0,16.77c0.05,4.79-2.46,7.47-7.51,8.05"/>
	<path vector-effect="non-scaling-stroke" class="st0" d="M113.08,40.29c-2.87-0.29-4.96-1.45-6.26-3.46
		c-0.82-1.27-1.23-3.39-1.23-6.36c0-8.88-0.02-13.84-0.07-14.89c-0.01-0.33-0.19-0.51-0.52-0.52c-2.01-0.08-6.89-0.1-14.65-0.06
		c-3.45,0.01-5.98,0.33-7.58,0.95c-2.7,1.05-4.7,2.83-5.99,5.35c-0.97,1.89-1.46,5.07-1.46,9.53c-0.01,159.46-0.01,309.94,0,451.43
		c0,3.57,0.32,6.07,0.96,7.5c1.15,2.58,2.92,4.54,5.3,5.88c1.63,0.91,5,1.36,10.11,1.36c110.69,0,221.37,0,332.06,0
		c5.81,0.01,9.67-2.16,11.6-6.5c0.9-2.03,1.35-5.92,1.35-11.69c-0.01-54.73-0.02-109.46-0.01-164.21c0-3.49,0.29-5.85,0.88-7.08
		c1.17-2.45,3.42-3.84,6.77-4.18"/>
	<path vector-effect="non-scaling-stroke" class="st0" d="M374.24,26v48.04c0,1.71,0.85,2.56,2.55,2.56h48.5
		c0.25,0,0.28-0.09,0.11-0.26l-50.59-50.58c-0.13-0.13-0.34-0.13-0.47,0C374.28,25.82,374.24,25.91,374.24,26"/>
	<path vector-effect="non-scaling-stroke" class="st0" d="M113.08,40.29l0.05,19.43"/>
	<path vector-effect="non-scaling-stroke" class="st0" d="M406.45,202.58c0-16.86-13.67-30.53-30.53-30.53s-30.53,13.67-30.53,30.53
		s13.67,30.53,30.53,30.53S406.45,219.44,406.45,202.58"/>
	<path vector-effect="non-scaling-stroke" class="st0" d="M125.68,233.3c3.03,0,5.81-1.9,6.97-4.68c0.34-0.83,0.51-2.19,0.52-4.08
		c0.01-3.21,0.03-15.46,0.06-36.77c0-0.36,0.18-0.54,0.54-0.55c2.49-0.05,5.59,0.31,7.78-0.71c5.49-2.53,5.87-9.75,0.82-13.19
		c-1.19-0.81-3.51-1.19-6.95-1.15c-1.26,0.02-4.49,0.03-9.69,0.02c-5.2,0-8.43-0.01-9.69-0.04c-3.44-0.04-5.76,0.34-6.95,1.14
		c-5.06,3.43-4.69,10.65,0.79,13.19c2.19,1.03,5.29,0.67,7.78,0.73c0.36,0.01,0.54,0.19,0.54,0.55c0,21.31,0,33.56,0,36.77
		c0.01,1.89,0.18,3.25,0.51,4.08C119.87,231.39,122.65,233.29,125.68,233.3"/>
	<path vector-effect="non-scaling-stroke" class="st0" d="M212.55,202.75c0-16.86-13.67-30.53-30.53-30.53s-30.53,13.67-30.53,30.53
		s13.67,30.53,30.53,30.53S212.55,219.61,212.55,202.75"/>
	<path vector-effect="non-scaling-stroke" class="st0" d="M290.31,180.55l0.16,44.32c0.02,4.31,3.52,7.79,7.83,7.78l11.92-0.04
		c14.32-0.05,25.89-12.46,25.84-27.72c0,0,0,0,0-0.01l-0.02-4.66c-0.05-15.26-11.7-27.6-26.02-27.55l-11.92,0.04
		c-4.31,0.01-7.8,3.52-7.79,7.83C290.31,180.54,290.31,180.55,290.31,180.55"/>
	<path vector-effect="non-scaling-stroke" class="st0" d="M273.12,202.49c0-3.98-3.22-7.2-7.2-7.2h-28.34c-3.98,0-7.2,3.22-7.2,7.2
		c0,0,0,0,0,0v0.54c0,3.98,3.22,7.2,7.2,7.2h28.34c3.98,0,7.2-3.22,7.2-7.2V202.49"/>
	<path vector-effect="non-scaling-stroke" class="st0" d="M118.19,266.33c-6.85,0-12.4,5.55-12.4,12.4v0v41.79
		c0,6.85,5.55,12.4,12.4,12.4c0,0,0,0,0,0H160c6.85,0,12.4-5.55,12.4-12.4c0,0,0,0,0,0v-41.79c0-6.85-5.55-12.4-12.4-12.4h0H118.19"
		/>
	<path vector-effect="non-scaling-stroke" class="st0" d="M406.21,281.76c0-4.1-3.32-7.42-7.42-7.42h-182.1
		c-4.1,0-7.42,3.32-7.42,7.42l0,0v0.16c0,4.1,3.32,7.42,7.42,7.42h182.1c4.1,0,7.42-3.32,7.42-7.42V281.76"/>
	<path vector-effect="non-scaling-stroke" class="st0" d="M349.59,317.27c0-4.09-3.31-7.4-7.4-7.4H216.63c-4.09,0-7.4,3.31-7.4,7.4
		l0,0v0.2c0,4.09,3.31,7.4,7.4,7.4l0,0h125.56c4.09,0,7.4-3.31,7.4-7.4V317.27"/>
	<path vector-effect="non-scaling-stroke" class="st0" d="M118.19,371.81c-6.85,0-12.4,5.55-12.4,12.4V426
		c0,6.85,5.55,12.4,12.4,12.4H160c6.85,0,12.4-5.55,12.4-12.4v-41.79c0-6.85-5.55-12.4-12.4-12.4H118.19"/>
	<path vector-effect="non-scaling-stroke" class="st0" d="M406.17,387.3c0-4.1-3.33-7.43-7.43-7.43c0,0,0,0,0,0H216.66
		c-4.1,0-7.43,3.33-7.43,7.43l0,0v0.14c0,4.1,3.33,7.43,7.43,7.43l0,0h182.08c4.1,0,7.43-3.33,7.43-7.43c0,0,0,0,0,0V387.3"/>
	<path vector-effect="non-scaling-stroke" class="st0" d="M349.56,422.8c0-4.09-3.31-7.4-7.4-7.4H216.6c-4.09,0-7.4,3.31-7.4,7.4
		l0,0v0.2c0,4.09,3.31,7.4,7.4,7.4l0,0h125.56c4.09,0,7.4-3.31,7.4-7.4V422.8"/>
	<path vector-effect="non-scaling-stroke" class="st0" d="M391.45,202.58c0-8.58-6.95-15.53-15.53-15.53s-15.53,6.95-15.53,15.53
		s6.95,15.53,15.53,15.53S391.45,211.16,391.45,202.58"/>
	<path vector-effect="non-scaling-stroke" class="st0" d="M197.55,202.75c0-8.58-6.95-15.53-15.53-15.53s-15.53,6.95-15.53,15.53
		s6.95,15.53,15.53,15.53S197.55,211.33,197.55,202.75"/>
	<path vector-effect="non-scaling-stroke" class="st0" d="M305.44,188.23v28.86c0,0.29,0.23,0.52,0.52,0.52h4.24
		c6,0,10.86-5.86,10.86-13.08v-3.74c0-7.22-4.86-13.08-10.86-13.08h-4.24C305.67,187.71,305.44,187.94,305.44,188.23"/>
	<path vector-effect="non-scaling-stroke" class="st0" d="M157.39,281.6c0-0.15-0.12-0.27-0.27-0.27c0,0,0,0,0,0h-36.06
		c-0.15,0-0.27,0.12-0.27,0.27c0,0,0,0,0,0v36.06c0,0.15,0.12,0.27,0.27,0.27h36.06c0.15,0,0.27-0.12,0.27-0.27V281.6"/>
	<path vector-effect="non-scaling-stroke" class="st0" d="M157.39,387.07c0-0.15-0.12-0.27-0.27-0.27c0,0,0,0,0,0h-36.06
		c-0.15,0-0.27,0.12-0.27,0.27c0,0,0,0,0,0v36.06c0,0.15,0.12,0.27,0.27,0.27h36.06c0.15,0,0.27-0.12,0.27-0.27V387.07"/>
</g>
<path d="M367.9,0c1.91,0.62,4.22,2.27,6.91,4.94c22.38,22.19,46.58,46.13,72.6,71.82c3.11,3.07,4.27,4.41,4.27,9.31
	c0,69.18,0,131.4,0,186.67c0,3.36-0.3,5.65-0.89,6.87c-1.14,2.34-3.3,3.72-6.48,4.14c-4.03-0.51-6.47-2.4-7.32-5.66
	c-0.21-0.77-0.31-3.52-0.31-8.23c0.02-74.4,0.02-133.64-0.01-177.72c0-0.34-0.17-0.51-0.51-0.51c-23.06-0.06-42.09-0.06-57.09,0.01
	c-3.89,0.02-6.84-0.4-8.87-1.26c-7.35-3.12-11-8.9-10.97-17.35c0.06-18.03,0.05-37.22-0.04-57.55c-0.01-0.32-0.17-0.48-0.49-0.48
	H190.05c-0.32,0-0.48,0.16-0.48,0.47c-0.07,22.36-0.08,47.47-0.05,75.33c0.01,4.94-0.09,7.9-0.3,8.88c-0.67,3.18-2.5,5.68-5.51,7.49
	c-4.61,2.79-9,2.88-13.17,0.27c-1.59-1-9.16-5.71-22.71-14.12c-0.18-0.11-0.4-0.11-0.58,0c-6.53,4.13-14.01,8.78-22.44,13.95
	c-3.41,2.09-6.88,2.54-10.41,1.34c-5.89-2-8.84-6.29-8.83-12.88c0.01-11.96,0-21.37-0.03-28.23c-0.01-4.67,2.52-7.27,7.59-7.78
	c3.22,0.4,5.41,1.78,6.56,4.14c0.6,1.23,0.89,3.54,0.88,6.94c-0.04,8.34-0.02,15.3,0.06,20.87c0.01,0.34,0.15,0.42,0.44,0.25
	c7.85-4.82,14.46-8.92,19.81-12.3c2.37-1.5,5.13-2.09,8.28-1.77c1.79,0.18,4.25,1.25,7.37,3.2c7.64,4.77,13.5,8.43,17.57,10.98
	c0.12,0.08,0.29,0.05,0.37-0.07c0.03-0.05,0.05-0.1,0.05-0.16V15.26c0-0.14-0.11-0.25-0.25-0.25h-53.21c-0.31,0-0.46,0.15-0.47,0.46
	c-0.05,5.66-0.05,11.25,0,16.77c0.05,4.79-2.46,7.47-7.51,8.05c-2.87-0.29-4.96-1.45-6.26-3.46c-0.82-1.27-1.23-3.39-1.23-6.36
	c0-8.88-0.02-13.84-0.07-14.89c-0.01-0.33-0.19-0.51-0.52-0.52c-2.01-0.08-6.89-0.1-14.65-0.06c-3.45,0.01-5.98,0.33-7.58,0.95
	c-2.7,1.05-4.7,2.83-5.99,5.35c-0.97,1.89-1.46,5.07-1.46,9.53c-0.01,159.46-0.01,309.94,0,451.43c0,3.57,0.32,6.07,0.96,7.5
	c1.15,2.58,2.92,4.54,5.3,5.88c1.63,0.91,5,1.36,10.11,1.36c110.69,0,221.37,0,332.06,0c5.81,0.01,9.67-2.16,11.6-6.5
	c0.9-2.03,1.35-5.92,1.35-11.69c-0.01-54.73-0.02-109.46-0.01-164.21c0-3.49,0.29-5.85,0.88-7.08c1.17-2.45,3.42-3.84,6.77-4.18
	c4.89,0.71,7.34,3.35,7.34,7.91c-0.01,56.24-0.01,112.48-0.01,168.73c0,5.94-0.36,10.17-1.08,12.69c-1.24,4.29-3.45,8.05-6.64,11.28
	c-4.47,4.53-10.09,7.22-16.85,8.05H84.88c-11.22-1.26-20.66-8.85-23.6-19.76c-0.63-2.31-0.94-6.15-0.94-11.51
	c-0.01-92.42-0.03-243.41-0.06-452.98c0-4.03,0.68-8.11,2.42-11.79C66.95,6.96,74.3,1.64,84.74,0H367.9z M374.24,26v48.04
	c0,1.71,0.85,2.56,2.55,2.56h48.5c0.25,0,0.28-0.09,0.11-0.26l-50.59-50.58c-0.13-0.13-0.34-0.13-0.47,0
	C374.28,25.82,374.24,25.91,374.24,26z"/>
<path class="st1" d="M113.08,40.29l0.05,19.43c-5.07,0.51-7.6,3.11-7.59,7.78c0.03,6.86,0.04,16.27,0.03,28.23
	c-0.01,6.59,2.94,10.88,8.83,12.88c3.53,1.2,7,0.75,10.41-1.34c8.43-5.17,15.91-9.82,22.44-13.95c0.18-0.11,0.4-0.11,0.58,0
	c13.55,8.41,21.12,13.12,22.71,14.12c4.17,2.61,8.56,2.52,13.17-0.27c3.01-1.81,4.84-4.31,5.51-7.49c0.21-0.98,0.31-3.94,0.3-8.88
	c-0.03-27.86-0.02-52.97,0.05-75.33c0-0.31,0.16-0.47,0.48-0.47H358.7c0.32,0,0.48,0.16,0.49,0.48c0.09,20.33,0.1,39.52,0.04,57.55
	c-0.03,8.45,3.62,14.23,10.97,17.35c2.03,0.86,4.98,1.28,8.87,1.26c15-0.07,34.03-0.07,57.09-0.01c0.34,0,0.51,0.17,0.51,0.51
	c0.03,44.08,0.03,103.32,0.01,177.72c0,4.71,0.1,7.46,0.31,8.23c0.85,3.26,3.29,5.15,7.32,5.66l0.03,19.59
	c-3.35,0.34-5.6,1.73-6.77,4.18c-0.59,1.23-0.88,3.59-0.88,7.08c-0.01,54.75,0,109.48,0.01,164.21c0,5.77-0.45,9.66-1.35,11.69
	c-1.93,4.34-5.79,6.51-11.6,6.5c-110.69,0-221.37,0-332.06,0c-5.11,0-8.48-0.45-10.11-1.36c-2.38-1.34-4.15-3.3-5.3-5.88
	c-0.64-1.43-0.96-3.93-0.96-7.5c-0.01-141.49-0.01-291.97,0-451.43c0-4.46,0.49-7.64,1.46-9.53c1.29-2.52,3.29-4.3,5.99-5.35
	c1.6-0.62,4.13-0.94,7.58-0.95c7.76-0.04,12.64-0.02,14.65,0.06c0.33,0.01,0.51,0.19,0.52,0.52c0.05,1.05,0.07,6.01,0.07,14.89
	c0,2.97,0.41,5.09,1.23,6.36C108.12,38.84,110.21,40,113.08,40.29z M406.45,202.58c0-16.86-13.67-30.53-30.53-30.53
	s-30.53,13.67-30.53,30.53s13.67,30.53,30.53,30.53S406.45,219.44,406.45,202.58z M125.68,233.3c3.03,0,5.81-1.9,6.97-4.68
	c0.34-0.83,0.51-2.19,0.52-4.08c0.01-3.21,0.03-15.46,0.06-36.77c0-0.36,0.18-0.54,0.54-0.55c2.49-0.05,5.59,0.31,7.78-0.71
	c5.49-2.53,5.87-9.75,0.82-13.19c-1.19-0.81-3.51-1.19-6.95-1.15c-1.26,0.02-4.49,0.03-9.69,0.02c-5.2,0-8.43-0.01-9.69-0.04
	c-3.44-0.04-5.76,0.34-6.95,1.14c-5.06,3.43-4.69,10.65,0.79,13.19c2.19,1.03,5.29,0.67,7.78,0.73c0.36,0.01,0.54,0.19,0.54,0.55
	c0,21.31,0,33.56,0,36.77c0.01,1.89,0.18,3.25,0.51,4.08C119.87,231.39,122.65,233.29,125.68,233.3z M212.55,202.75
	c0-16.86-13.67-30.53-30.53-30.53s-30.53,13.67-30.53,30.53s13.67,30.53,30.53,30.53S212.55,219.61,212.55,202.75z M290.31,180.55
	l0.16,44.32c0.02,4.31,3.52,7.79,7.83,7.78l11.92-0.04c14.32-0.05,25.89-12.46,25.84-27.72c0,0,0,0,0-0.01l-0.02-4.66
	c-0.05-15.26-11.7-27.6-26.02-27.55l-11.92,0.04c-4.31,0.01-7.8,3.52-7.79,7.83C290.31,180.54,290.31,180.55,290.31,180.55z
	 M273.12,202.49c0-3.98-3.22-7.2-7.2-7.2h-28.34c-3.98,0-7.2,3.22-7.2,7.2c0,0,0,0,0,0v0.54c0,3.98,3.22,7.2,7.2,7.2h28.34
	c3.98,0,7.2-3.22,7.2-7.2V202.49z M118.19,266.33c-6.85,0-12.4,5.55-12.4,12.4v0v41.79c0,6.85,5.55,12.4,12.4,12.4c0,0,0,0,0,0H160
	c6.85,0,12.4-5.55,12.4-12.4c0,0,0,0,0,0v-41.79c0-6.85-5.55-12.4-12.4-12.4h0H118.19z M406.21,281.76c0-4.1-3.32-7.42-7.42-7.42
	h-182.1c-4.1,0-7.42,3.32-7.42,7.42l0,0v0.16c0,4.1,3.32,7.42,7.42,7.42h182.1c4.1,0,7.42-3.32,7.42-7.42V281.76z M349.59,317.27
	c0-4.09-3.31-7.4-7.4-7.4H216.63c-4.09,0-7.4,3.31-7.4,7.4l0,0v0.2c0,4.09,3.31,7.4,7.4,7.4l0,0h125.56c4.09,0,7.4-3.31,7.4-7.4
	V317.27z M118.19,371.81c-6.85,0-12.4,5.55-12.4,12.4V426c0,6.85,5.55,12.4,12.4,12.4H160c6.85,0,12.4-5.55,12.4-12.4v-41.79
	c0-6.85-5.55-12.4-12.4-12.4H118.19z M406.17,387.3c0-4.1-3.33-7.43-7.43-7.43c0,0,0,0,0,0H216.66c-4.1,0-7.43,3.33-7.43,7.43l0,0
	v0.14c0,4.1,3.33,7.43,7.43,7.43l0,0h182.08c4.1,0,7.43-3.33,7.43-7.43c0,0,0,0,0,0V387.3z M349.56,422.8c0-4.09-3.31-7.4-7.4-7.4
	H216.6c-4.09,0-7.4,3.31-7.4,7.4l0,0v0.2c0,4.09,3.31,7.4,7.4,7.4l0,0h125.56c4.09,0,7.4-3.31,7.4-7.4V422.8z"/>
<path class="st2" d="M113.13,59.72l-0.05-19.43c5.05-0.58,7.56-3.26,7.51-8.05c-0.05-5.52-0.05-11.11,0-16.77
	c0.01-0.31,0.16-0.46,0.47-0.46h53.21c0.14,0,0.25,0.11,0.25,0.25V91.8c0,0.15-0.12,0.27-0.26,0.28c-0.06,0-0.11-0.01-0.16-0.05
	c-4.07-2.55-9.93-6.21-17.57-10.98c-3.12-1.95-5.58-3.02-7.37-3.2c-3.15-0.32-5.91,0.27-8.28,1.77c-5.35,3.38-11.96,7.48-19.81,12.3
	c-0.29,0.17-0.43,0.09-0.44-0.25c-0.08-5.57-0.1-12.53-0.06-20.87c0.01-3.4-0.28-5.71-0.88-6.94
	C118.54,61.5,116.35,60.12,113.13,59.72z"/>
<path class="st3" d="M374.24,74.04V26c0-0.19,0.16-0.34,0.34-0.34c0.09,0,0.17,0.04,0.23,0.1l50.59,50.58
	c0.17,0.17,0.14,0.26-0.11,0.26h-48.5C375.09,76.6,374.24,75.75,374.24,74.04z"/>
<path d="M406.45,202.58c0,16.86-13.67,30.53-30.53,30.53s-30.53-13.67-30.53-30.53s13.67-30.53,30.53-30.53
	S406.45,185.72,406.45,202.58z M391.45,202.58c0-8.58-6.95-15.53-15.53-15.53s-15.53,6.95-15.53,15.53s6.95,15.53,15.53,15.53
	S391.45,211.16,391.45,202.58z"/>
<path d="M125.73,172.19c5.2,0.01,8.43,0,9.69-0.02c3.44-0.04,5.76,0.34,6.95,1.15c5.05,3.44,4.67,10.66-0.82,13.19
	c-2.19,1.02-5.29,0.66-7.78,0.71c-0.36,0.01-0.54,0.19-0.54,0.55c-0.03,21.31-0.05,33.56-0.06,36.77c-0.01,1.89-0.18,3.25-0.52,4.08
	c-1.16,2.78-3.94,4.68-6.97,4.68c-3.03-0.01-5.81-1.91-6.97-4.69c-0.33-0.83-0.5-2.19-0.51-4.08c0-3.21,0-15.46,0-36.77
	c0-0.36-0.18-0.54-0.54-0.55c-2.49-0.06-5.59,0.3-7.78-0.73c-5.48-2.54-5.85-9.76-0.79-13.19c1.19-0.8,3.51-1.18,6.95-1.14
	C117.3,172.18,120.53,172.19,125.73,172.19z"/>
<path d="M212.55,202.75c0,16.86-13.67,30.53-30.53,30.53s-30.53-13.67-30.53-30.53s13.67-30.53,30.53-30.53
	S212.55,185.89,212.55,202.75z M197.55,202.75c0-8.58-6.95-15.53-15.53-15.53s-15.53,6.95-15.53,15.53s6.95,15.53,15.53,15.53
	S197.55,211.33,197.55,202.75z"/>
<path d="M290.31,180.55c-0.02-4.31,3.47-7.82,7.78-7.84c0,0,0.01,0,0.01,0l11.92-0.04c14.32-0.05,25.97,12.29,26.02,27.55l0.02,4.66
	c0.05,15.27-11.51,27.68-25.83,27.73c0,0,0,0-0.01,0l-11.92,0.04c-4.31,0.01-7.81-3.47-7.83-7.78L290.31,180.55z M305.44,188.23
	v28.86c0,0.29,0.23,0.52,0.52,0.52h4.24c6,0,10.86-5.86,10.86-13.08v-3.74c0-7.22-4.86-13.08-10.86-13.08h-4.24
	C305.67,187.71,305.44,187.94,305.44,188.23z"/>
<circle class="st1" cx="375.92" cy="202.58" r="15.53"/>
<circle class="st1" cx="182.02" cy="202.75" r="15.53"/>
<path class="st1" d="M305.44,188.23c0-0.29,0.23-0.52,0.52-0.52h4.24c6,0,10.86,5.86,10.86,13.08v3.74
	c0,7.22-4.86,13.08-10.86,13.08h-4.24c-0.29,0-0.52-0.23-0.52-0.52V188.23z"/>
<path d="M237.58,195.29h28.34c3.98,0,7.2,3.22,7.2,7.2v0.54c0,3.98-3.22,7.2-7.2,7.2h-28.34c-3.98,0-7.2-3.22-7.2-7.2v-0.54
	C230.38,198.51,233.6,195.29,237.58,195.29z"/>
<path d="M118.19,266.33H160c6.85,0,12.4,5.55,12.4,12.4c0,0,0,0,0,0v41.79c0,6.85-5.55,12.4-12.4,12.4h0h-41.81
	c-6.85,0-12.4-5.55-12.4-12.4v0v-41.79C105.79,271.88,111.34,266.33,118.19,266.33C118.19,266.33,118.19,266.33,118.19,266.33z
	 M157.39,281.6c0-0.15-0.12-0.27-0.27-0.27c0,0,0,0,0,0h-36.06c-0.15,0-0.27,0.12-0.27,0.27c0,0,0,0,0,0v36.06
	c0,0.15,0.12,0.27,0.27,0.27h36.06c0.15,0,0.27-0.12,0.27-0.27V281.6z"/>
<path d="M216.69,274.34h182.1c4.1,0,7.42,3.32,7.42,7.42v0.16c0,4.1-3.32,7.42-7.42,7.42h-182.1c-4.1,0-7.42-3.32-7.42-7.42v-0.16
	C209.27,277.66,212.59,274.34,216.69,274.34z"/>
<path class="st4" d="M121.06,281.33h36.06c0.15,0,0.27,0.12,0.27,0.27v36.06c0,0.15-0.12,0.27-0.27,0.27h-36.06
	c-0.15,0-0.27-0.12-0.27-0.27V281.6C120.79,281.45,120.91,281.33,121.06,281.33z"/>
<path d="M216.63,309.87h125.56c4.09,0,7.4,3.31,7.4,7.4v0.2c0,4.09-3.31,7.4-7.4,7.4H216.63c-4.09,0-7.4-3.31-7.4-7.4v-0.2
	C209.23,313.18,212.54,309.87,216.63,309.87z"/>
<path d="M118.19,371.81H160c6.85,0,12.4,5.55,12.4,12.4V426c0,6.85-5.55,12.4-12.4,12.4h-41.81c-6.85,0-12.4-5.55-12.4-12.4v-41.79
	C105.79,377.36,111.34,371.81,118.19,371.81z M157.39,387.07c0-0.15-0.12-0.27-0.27-0.27c0,0,0,0,0,0h-36.06
	c-0.15,0-0.27,0.12-0.27,0.27c0,0,0,0,0,0v36.06c0,0.15,0.12,0.27,0.27,0.27h36.06c0.15,0,0.27-0.12,0.27-0.27V387.07z"/>
<path d="M216.66,379.87h182.08c4.1,0,7.43,3.33,7.43,7.43v0.14c0,4.1-3.33,7.43-7.43,7.43H216.66c-4.1,0-7.43-3.33-7.43-7.43v-0.14
	C209.23,383.2,212.56,379.87,216.66,379.87z"/>
<path class="st4" d="M121.06,386.8h36.06c0.15,0,0.27,0.12,0.27,0.27v36.06c0,0.15-0.12,0.27-0.27,0.27h-36.06
	c-0.15,0-0.27-0.12-0.27-0.27v-36.06C120.79,386.92,120.91,386.8,121.06,386.8z"/>
<path d="M216.6,415.4h125.56c4.09,0,7.4,3.31,7.4,7.4v0.2c0,4.09-3.31,7.4-7.4,7.4H216.6c-4.09,0-7.4-3.31-7.4-7.4v-0.2
	C209.2,418.71,212.51,415.4,216.6,415.4z"/>
</svg>
