<svg xmlns="http://www.w3.org/2000/svg" xml:space="preserve" style="enable-background:new 0 0 122.88 122.88" viewBox="0 0 122.88 122.88"><path d="M15.36 0h92.16c8.48 0 15.36 6.88 15.36 15.36v92.16c0 8.48-6.88 15.36-15.36 15.36H15.36C6.88 122.88 0 116 0 107.52V15.36C0 6.88 6.88 0 15.36 0z" style="fill-rule:evenodd;clip-rule:evenodd;fill:#0079bf"/><path d="M76.26 16.09h23.73c3.75 0 6.82 3.07 6.82 6.82v39.95c0 3.75-3.07 6.82-6.82 6.82H76.26c-3.75 0-6.82-3.07-6.82-6.82V22.91c0-3.75 3.07-6.82 6.82-6.82zm-53.3 0H46.7c3.75 0 6.82 3.07 6.82 6.82v70.92c0 3.75-3.07 6.82-6.82 6.82H22.96c-3.75 0-6.82-3.07-6.82-6.82V22.91c0-3.75 3.07-6.82 6.82-6.82z" style="fill-rule:evenodd;clip-rule:evenodd;fill:#fff"/></svg>